<?xml version="1.0" encoding="UTF-8"?>
<svg width="643px" height="485px" viewBox="0 0 643 485" version="1.1" xmlns="http://www.w3.org/2000/svg" xmlns:xlink="http://www.w3.org/1999/xlink">
    <!-- Generator: Sketch 52 (66869) - http://www.bohemiancoding.com/sketch -->
    <title>img3</title>
    <desc>Created with Sketch.</desc>
    <defs>
        <rect id="path-1" x="320" y="164" width="206" height="83"></rect>
        <filter x="-4.4%" y="-10.8%" width="108.7%" height="121.7%" filterUnits="objectBoundingBox" id="filter-2">
            <feGaussianBlur stdDeviation="9" in="SourceAlpha" result="shadowBlurInner1"></feGaussianBlur>
            <feOffset dx="0" dy="0" in="shadowBlurInner1" result="shadowOffsetInner1"></feOffset>
            <feComposite in="shadowOffsetInner1" in2="SourceAlpha" operator="arithmetic" k2="-1" k3="1" result="shadowInnerInner1"></feComposite>
            <feColorMatrix values="0 0 0 0 0.449412876   0 0 0 0 0.741363733   0 0 0 0 0.146757491  0 0 0 1 0" type="matrix" in="shadowInnerInner1"></feColorMatrix>
        </filter>
        <rect id="path-3" x="237" y="247" width="83" height="42"></rect>
        <filter x="-10.8%" y="-21.4%" width="121.7%" height="142.9%" filterUnits="objectBoundingBox" id="filter-4">
            <feGaussianBlur stdDeviation="9" in="SourceAlpha" result="shadowBlurInner1"></feGaussianBlur>
            <feOffset dx="0" dy="0" in="shadowBlurInner1" result="shadowOffsetInner1"></feOffset>
            <feComposite in="shadowOffsetInner1" in2="SourceAlpha" operator="arithmetic" k2="-1" k3="1" result="shadowInnerInner1"></feComposite>
            <feColorMatrix values="0 0 0 0 0.898809524   0 0 0 0 0.310916315   0 0 0 0 0.310916315  0 0 0 1 0" type="matrix" in="shadowInnerInner1"></feColorMatrix>
        </filter>
    </defs>
    <g id="Page-1" stroke="none" stroke-width="1" fill="none" fill-rule="evenodd">
        <g id="WP" transform="translate(-392.000000, -2325.000000)">
            <g id="img3" transform="translate(392.000000, 2325.000000)">
                <g id="Rectangle">
                    <use fill="#FFFBEB" fill-rule="evenodd" xlink:href="#path-1"></use>
                    <use fill="black" fill-opacity="1" filter="url(#filter-2)" xlink:href="#path-1"></use>
                </g>
                <g id="Rectangle-Copy-12">
                    <use fill="#FFFBEB" fill-rule="evenodd" xlink:href="#path-3"></use>
                    <use fill="black" fill-opacity="1" filter="url(#filter-4)" xlink:href="#path-3"></use>
                </g>
                <polygon id="ion-android-arrow-dropright---Ionicons" fill="#8382EF" points="632 239 643 246.5 632 254"></polygon>
                <polygon id="ion-android-arrow-dropright---Ionicons" fill="#8382EF" transform="translate(319.500000, 5.500000) rotate(-90.000000) translate(-319.500000, -5.500000) " points="314 -2 325 5.5 314 13"></polygon>
                <path d="M3.37102473,248 C1.50925918,248 0,247.328427 0,246.5 C0,245.671573 1.50925918,245 3.37102473,245 L632.628975,245 C634.490741,245 636,245.671573 636,246.5 C636,247.328427 634.490741,248 632.628975,248 L3.37102473,248 Z" id="Rectangle" fill="#8382EF" transform="translate(318.000000, 246.500000) scale(-1, 1) translate(-318.000000, -246.500000) "></path>
                <path d="M83.0335689,247.5 C81.6343174,247.5 80.5,246.828427 80.5,246 C80.5,245.171573 81.6343174,244.5 83.0335689,244.5 L555.966431,244.5 C557.365683,244.5 558.5,245.171573 558.5,246 C558.5,246.828427 557.365683,247.5 555.966431,247.5 L83.0335689,247.5 Z" id="Rectangle-Copy-5" fill="#8382EF" transform="translate(319.500000, 246.000000) scale(-1, 1) rotate(90.000000) translate(-319.500000, -246.000000) "></path>
                <circle id="Oval" stroke="#FFFFFF" stroke-width="2" fill="#8382EF" cx="319.5" cy="246.5" r="5"></circle>
                <g id="Stacked-Group" transform="translate(361.000000, 243.000000)" fill="#8382EF">
                    <rect id="Rectangle" x="0" y="0" width="1" height="7"></rect>
                    <rect id="Rectangle-Copy-6" x="41" y="0" width="1" height="7"></rect>
                    <rect id="Rectangle-Copy-7" x="82" y="0" width="1" height="7"></rect>
                    <rect id="Rectangle-Copy-8" x="123" y="0" width="1" height="7"></rect>
                    <rect id="Rectangle-Copy-9" x="164" y="0" width="1" height="7"></rect>
                    <rect id="Rectangle-Copy-10" x="205" y="0" width="1" height="7"></rect>
                    <rect id="Rectangle-Copy-11" x="246" y="0" width="1" height="7"></rect>
                </g>
                <g id="Stacked-Group-Copy" transform="translate(31.000000, 243.000000)" fill="#8382EF">
                    <rect id="Rectangle" x="0" y="0" width="1" height="7"></rect>
                    <rect id="Rectangle-Copy-6" x="41" y="0" width="1" height="7"></rect>
                    <rect id="Rectangle-Copy-7" x="82" y="0" width="1" height="7"></rect>
                    <rect id="Rectangle-Copy-8" x="123" y="0" width="1" height="7"></rect>
                    <rect id="Rectangle-Copy-9" x="164" y="0" width="1" height="7"></rect>
                    <rect id="Rectangle-Copy-10" x="205" y="0" width="1" height="7"></rect>
                    <rect id="Rectangle-Copy-11" x="246" y="0" width="1" height="7"></rect>
                </g>
                <g id="Stacked-Group-Copy-2" transform="translate(319.500000, 370.500000) rotate(90.000000) translate(-319.500000, -370.500000) translate(237.000000, 367.000000)" fill="#8382EF">
                    <rect id="Rectangle" x="0" y="0" width="1" height="7"></rect>
                    <rect id="Rectangle-Copy-6" x="41" y="0" width="1" height="7"></rect>
                    <rect id="Rectangle-Copy-7" x="82" y="0" width="1" height="7"></rect>
                    <rect id="Rectangle-Copy-8" x="123" y="0" width="1" height="7"></rect>
                    <rect id="Rectangle-Copy-9" x="164" y="0" width="1" height="7"></rect>
                </g>
                <g id="Stacked-Group-Copy-3" transform="translate(319.500000, 122.500000) rotate(90.000000) translate(-319.500000, -122.500000) translate(237.000000, 119.000000)" fill="#8382EF">
                    <rect id="Rectangle" x="0" y="0" width="1" height="7"></rect>
                    <rect id="Rectangle-Copy-6" x="41" y="0" width="1" height="7"></rect>
                    <rect id="Rectangle-Copy-7" x="82" y="0" width="1" height="7"></rect>
                    <rect id="Rectangle-Copy-8" x="123" y="0" width="1" height="7"></rect>
                    <rect id="Rectangle-Copy-9" x="164" y="0" width="1" height="7"></rect>
                </g>
                <g id="Group-7" transform="translate(360.000000, 253.000000)" fill="#000000">
                    <path d="M0.40625,3.83398438 L2.33984375,2.890625 L2.53320312,2.890625 L2.53320312,9.59960938 C2.53320312,10.0449241 2.55175763,10.3222651 2.58886719,10.4316406 C2.62597675,10.5410162 2.70312441,10.6249997 2.8203125,10.6835938 C2.93750059,10.7421878 3.17577945,10.7753906 3.53515625,10.7832031 L3.53515625,11 L0.546875,11 L0.546875,10.7832031 C0.921876875,10.7753906 1.16406195,10.7431643 1.2734375,10.6865234 C1.38281305,10.6298825 1.45898416,10.5537114 1.50195312,10.4580078 C1.54492209,10.3623042 1.56640625,10.0761743 1.56640625,9.59960938 L1.56640625,5.31054688 C1.56640625,4.73241898 1.5468752,4.36132895 1.5078125,4.19726562 C1.48046861,4.072265 1.43066442,3.98046904 1.35839844,3.921875 C1.28613245,3.86328096 1.19921926,3.83398438 1.09765625,3.83398438 C0.953124277,3.83398438 0.751954414,3.89453064 0.494140625,4.015625 L0.40625,3.83398438 Z" id="1"></path>
                    <path d="M45.5019531,9.47070312 L44.9453125,11 L40.2578125,11 L40.2578125,10.7832031 C41.6367256,9.52538434 42.6074191,8.49805086 43.1699219,7.70117188 C43.7324247,6.90429289 44.0136719,6.17578455 44.0136719,5.515625 C44.0136719,5.01171623 43.8593765,4.59765787 43.5507812,4.2734375 C43.242186,3.94921713 42.873049,3.78710938 42.4433594,3.78710938 C42.0527324,3.78710938 41.70215,3.90136604 41.3916016,4.12988281 C41.0810531,4.35839958 40.8515632,4.69335717 40.703125,5.13476562 L40.4863281,5.13476562 C40.5839849,4.41210576 40.8349589,3.85742381 41.2392578,3.47070312 C41.6435567,3.08398244 42.1484345,2.890625 42.7539062,2.890625 C43.3984407,2.890625 43.9365213,3.09765418 44.3681641,3.51171875 C44.7998068,3.92578332 45.015625,4.41405969 45.015625,4.9765625 C45.015625,5.37890826 44.9218759,5.78124799 44.734375,6.18359375 C44.4453111,6.81640941 43.9765657,7.48632459 43.328125,8.19335938 C42.3554639,9.25586469 41.7480481,9.89648328 41.5058594,10.1152344 L43.5800781,10.1152344 C44.0019552,10.1152344 44.2978507,10.0996095 44.4677734,10.0683594 C44.6376962,10.0371092 44.7910149,9.97363329 44.9277344,9.87792969 C45.0644538,9.78222608 45.1835932,9.64648525 45.2851562,9.47070312 L45.5019531,9.47070312 Z" id="2"></path>
                    <path d="M81.609375,4.56640625 C81.8359386,4.03124732 82.1220686,3.61816552 82.4677734,3.32714844 C82.8134783,3.03613136 83.244138,2.890625 83.7597656,2.890625 C84.3964876,2.890625 84.8847639,3.09765418 85.2246094,3.51171875 C85.4824232,3.82031404 85.6113281,4.15038887 85.6113281,4.50195312 C85.6113281,5.08008102 85.2480505,5.67773129 84.5214844,6.29492188 C85.0097681,6.48632908 85.378905,6.75976385 85.6289062,7.11523438 C85.8789075,7.4707049 86.0039062,7.88866947 86.0039062,8.36914062 C86.0039062,9.05664406 85.7851584,9.65234123 85.3476562,10.15625 C84.7773409,10.8125033 83.9511773,11.140625 82.8691406,11.140625 C82.3339817,11.140625 81.9697275,11.0742194 81.7763672,10.9414062 C81.5830068,10.8085931 81.4863281,10.6660164 81.4863281,10.5136719 C81.4863281,10.4003901 81.5322261,10.3007817 81.6240234,10.2148438 C81.7158208,10.1289058 81.8261712,10.0859375 81.9550781,10.0859375 C82.0527349,10.0859375 82.1523432,10.1015623 82.2539062,10.1328125 C82.3203128,10.1523438 82.470702,10.2236322 82.7050781,10.3466797 C82.9394543,10.4697272 83.1015621,10.5429686 83.1914062,10.5664062 C83.3359382,10.6093752 83.4902336,10.6308594 83.6542969,10.6308594 C84.0527364,10.6308594 84.3994126,10.476564 84.6943359,10.1679688 C84.9892593,9.85937346 85.1367188,9.49414273 85.1367188,9.07226562 C85.1367188,8.76367033 85.0683601,8.46289209 84.9316406,8.16992188 C84.8300776,7.95117078 84.7187506,7.78515682 84.5976562,7.671875 C84.4296867,7.51562422 84.1992202,7.37402407 83.90625,7.24707031 C83.6132798,7.12011655 83.3144546,7.05664062 83.0097656,7.05664062 L82.8222656,7.05664062 L82.8222656,6.88085938 C83.1308609,6.84179668 83.4404281,6.73046967 83.7509766,6.546875 C84.061525,6.36328033 84.2871087,6.14257941 84.4277344,5.88476562 C84.5683601,5.62695184 84.6386719,5.34375154 84.6386719,5.03515625 C84.6386719,4.63281049 84.5126966,4.30761843 84.2607422,4.05957031 C84.0087878,3.8115222 83.6953144,3.6875 83.3203125,3.6875 C82.7148407,3.6875 82.2089864,4.01171551 81.8027344,4.66015625 L81.609375,4.56640625 Z" id="3"></path>
                    <path d="M127.583984,8.0703125 L127.583984,8.90234375 L126.517578,8.90234375 L126.517578,11 L125.550781,11 L125.550781,8.90234375 L122.1875,8.90234375 L122.1875,8.15234375 L125.873047,2.890625 L126.517578,2.890625 L126.517578,8.0703125 L127.583984,8.0703125 Z M125.550781,8.0703125 L125.550781,4.12695312 L122.761719,8.0703125 L125.550781,8.0703125 Z" id="4"></path>
                    <path d="M167.208984,3.0546875 L166.751953,4.05078125 L164.361328,4.05078125 L163.839844,5.1171875 C164.875005,5.26953201 165.695309,5.65429379 166.300781,6.27148438 C166.820315,6.80273703 167.080078,7.42773078 167.080078,8.14648438 C167.080078,8.56445521 166.995118,8.9511701 166.825195,9.30664062 C166.655273,9.66211115 166.441408,9.9648425 166.183594,10.2148438 C165.92578,10.464845 165.638673,10.6660149 165.322266,10.8183594 C164.873045,11.0332042 164.412112,11.140625 163.939453,11.140625 C163.462888,11.140625 163.116212,11.0595711 162.899414,10.8974609 C162.682616,10.7353508 162.574219,10.5566416 162.574219,10.3613281 C162.574219,10.2519526 162.61914,10.1552739 162.708984,10.0712891 C162.798829,9.98730427 162.912109,9.9453125 163.048828,9.9453125 C163.150391,9.9453125 163.239257,9.96093734 163.31543,9.9921875 C163.391602,10.0234377 163.521483,10.103515 163.705078,10.2324219 C163.998048,10.4355479 164.29492,10.5371094 164.595703,10.5371094 C165.052737,10.5371094 165.4541,10.3642595 165.799805,10.0185547 C166.14551,9.67284983 166.318359,9.25195561 166.318359,8.75585938 C166.318359,8.27538822 166.164064,7.82715052 165.855469,7.41113281 C165.546873,6.99511511 165.121096,6.67382926 164.578125,6.44726562 C164.152342,6.2714835 163.572269,6.16992201 162.837891,6.14257812 L164.361328,3.0546875 L167.208984,3.0546875 Z" id="5"></path>
                    <path d="M208.378906,2.890625 L208.378906,3.10742188 C207.863279,3.15820338 207.442384,3.26074142 207.116211,3.41503906 C206.790037,3.56933671 206.467775,3.80468592 206.149414,4.12109375 C205.831053,4.43750158 205.567384,4.79003712 205.358398,5.17871094 C205.149413,5.56738476 204.97461,6.0292942 204.833984,6.56445312 C205.396487,6.17773244 205.960935,5.984375 206.527344,5.984375 C207.070315,5.984375 207.541014,6.20312281 207.939453,6.640625 C208.337893,7.07812719 208.537109,7.64062156 208.537109,8.328125 C208.537109,8.99219082 208.33594,9.59765352 207.933594,10.1445312 C207.449216,10.8085971 206.808598,11.140625 206.011719,11.140625 C205.468747,11.140625 205.007814,10.9609393 204.628906,10.6015625 C203.886715,9.90234025 203.515625,8.99609932 203.515625,7.8828125 C203.515625,7.17187145 203.658202,6.49609695 203.943359,5.85546875 C204.228517,5.21484055 204.63574,4.64648686 205.165039,4.15039062 C205.694339,3.65429439 206.201169,3.32031336 206.685547,3.1484375 C207.169924,2.97656164 207.621092,2.890625 208.039062,2.890625 L208.378906,2.890625 Z M204.734375,6.9921875 C204.664062,7.51953389 204.628906,7.94531088 204.628906,8.26953125 C204.628906,8.64453312 204.698241,9.05175562 204.836914,9.49121094 C204.975587,9.93066626 205.181639,10.2792956 205.455078,10.5371094 C205.654298,10.720704 205.896483,10.8125 206.181641,10.8125 C206.521486,10.8125 206.825194,10.6523454 207.092773,10.3320312 C207.360353,10.0117171 207.494141,9.55469047 207.494141,8.9609375 C207.494141,8.29296541 207.361329,7.71484619 207.095703,7.2265625 C206.830077,6.73827881 206.453127,6.49414062 205.964844,6.49414062 C205.816406,6.49414062 205.657227,6.52539031 205.487305,6.58789062 C205.317382,6.65039094 205.066408,6.78515521 204.734375,6.9921875 Z" id="6"></path>
                    <path d="M245.207031,3.0546875 L249.466797,3.0546875 L249.466797,3.27734375 L246.818359,11.1640625 L246.162109,11.1640625 L248.535156,4.00976562 L246.349609,4.00976562 C245.908201,4.00976562 245.593751,4.06249947 245.40625,4.16796875 C245.078123,4.34765715 244.814454,4.62499813 244.615234,5 L244.445312,4.93554688 L245.207031,3.0546875 Z" id="7"></path>
                </g>
                <g id="Group-9" transform="translate(332.000000, 34.000000)" fill="#000000">
                    <path d="M1.40625,166.833984 L3.33984375,165.890625 L3.53320312,165.890625 L3.53320312,172.599609 C3.53320312,173.044924 3.55175763,173.322265 3.58886719,173.431641 C3.62597675,173.541016 3.70312441,173.625 3.8203125,173.683594 C3.93750059,173.742188 4.17577945,173.775391 4.53515625,173.783203 L4.53515625,174 L1.546875,174 L1.546875,173.783203 C1.92187688,173.775391 2.16406195,173.743164 2.2734375,173.686523 C2.38281305,173.629883 2.45898416,173.553711 2.50195312,173.458008 C2.54492209,173.362304 2.56640625,173.076174 2.56640625,172.599609 L2.56640625,168.310547 C2.56640625,167.732419 2.5468752,167.361329 2.5078125,167.197266 C2.48046861,167.072265 2.43066442,166.980469 2.35839844,166.921875 C2.28613245,166.863281 2.19921926,166.833984 2.09765625,166.833984 C1.95312428,166.833984 1.75195441,166.894531 1.49414062,167.015625 L1.40625,166.833984 Z" id="1-copy"></path>
                    <path d="M5.50195312,132.470703 L4.9453125,134 L0.2578125,134 L0.2578125,133.783203 C1.63672564,132.525384 2.60741906,131.498051 3.16992188,130.701172 C3.73242469,129.904293 4.01367188,129.175785 4.01367188,128.515625 C4.01367188,128.011716 3.85937654,127.597658 3.55078125,127.273438 C3.24218596,126.949217 2.87304902,126.787109 2.44335938,126.787109 C2.05273242,126.787109 1.70214999,126.901366 1.39160156,127.129883 C1.08105313,127.3584 0.851563242,127.693357 0.703125,128.134766 L0.486328125,128.134766 C0.583984863,127.412106 0.834958916,126.857424 1.23925781,126.470703 C1.64355671,126.083982 2.14843447,125.890625 2.75390625,125.890625 C3.39844072,125.890625 3.93652128,126.097654 4.36816406,126.511719 C4.79980685,126.925783 5.015625,127.41406 5.015625,127.976562 C5.015625,128.378908 4.92187594,128.781248 4.734375,129.183594 C4.44531105,129.816409 3.97656574,130.486325 3.328125,131.193359 C2.35546389,132.255865 1.74804809,132.896483 1.50585938,133.115234 L3.58007813,133.115234 C4.00195523,133.115234 4.29785071,133.09961 4.46777344,133.068359 C4.63769616,133.037109 4.79101494,132.973633 4.92773438,132.87793 C5.06445381,132.782226 5.18359324,132.646485 5.28515625,132.470703 L5.50195312,132.470703 Z" id="2"></path>
                    <path d="M0.609375,86.5664062 C0.835938633,86.0312473 1.12206858,85.6181655 1.46777344,85.3271484 C1.81347829,85.0361314 2.24413805,84.890625 2.75976562,84.890625 C3.39648756,84.890625 3.88476393,85.0976542 4.22460938,85.5117188 C4.48242316,85.820314 4.61132812,86.1503889 4.61132812,86.5019531 C4.61132812,87.080081 4.24805051,87.6777313 3.52148437,88.2949219 C4.00976807,88.4863291 4.378905,88.7597638 4.62890625,89.1152344 C4.8789075,89.4707049 5.00390625,89.8886695 5.00390625,90.3691406 C5.00390625,91.0566441 4.78515844,91.6523412 4.34765625,92.15625 C3.7773409,92.8125033 2.95117729,93.140625 1.86914062,93.140625 C1.3339817,93.140625 0.969727529,93.0742194 0.776367188,92.9414062 C0.583006846,92.8085931 0.486328125,92.6660164 0.486328125,92.5136719 C0.486328125,92.4003901 0.532226104,92.3007817 0.624023438,92.2148438 C0.715820771,92.1289058 0.82617123,92.0859375 0.955078125,92.0859375 C1.05273486,92.0859375 1.15234324,92.1015623 1.25390625,92.1328125 C1.32031283,92.1523438 1.47070195,92.2236322 1.70507812,92.3466797 C1.9394543,92.4697272 2.10156205,92.5429686 2.19140625,92.5664062 C2.33593822,92.6093752 2.49023355,92.6308594 2.65429688,92.6308594 C3.05273637,92.6308594 3.39941259,92.476564 3.69433594,92.1679688 C3.98925929,91.8593735 4.13671875,91.4941427 4.13671875,91.0722656 C4.13671875,90.7636703 4.06836006,90.4628921 3.93164062,90.1699219 C3.83007762,89.9511708 3.71875061,89.7851568 3.59765625,89.671875 C3.42968666,89.5156242 3.19922021,89.3740241 2.90625,89.2470703 C2.61327979,89.1201166 2.31445465,89.0566406 2.00976562,89.0566406 L1.82226562,89.0566406 L1.82226562,88.8808594 C2.13086092,88.8417967 2.44042813,88.7304697 2.75097656,88.546875 C3.06152499,88.3632803 3.28710867,88.1425794 3.42773438,87.8847656 C3.56836008,87.6269518 3.63867188,87.3437515 3.63867188,87.0351562 C3.63867188,86.6328105 3.51269657,86.3076184 3.26074219,86.0595703 C3.0087878,85.8115222 2.69531437,85.6875 2.3203125,85.6875 C1.71484072,85.6875 1.20898641,86.0117155 0.802734375,86.6601562 L0.609375,86.5664062 Z" id="3"></path>
                    <path d="M5.58398438,48.0703125 L5.58398438,48.9023438 L4.51757812,48.9023438 L4.51757812,51 L3.55078125,51 L3.55078125,48.9023438 L0.1875,48.9023438 L0.1875,48.1523438 L3.87304688,42.890625 L4.51757812,42.890625 L4.51757812,48.0703125 L5.58398438,48.0703125 Z M3.55078125,48.0703125 L3.55078125,44.1269531 L0.76171875,48.0703125 L3.55078125,48.0703125 Z" id="4"></path>
                    <path d="M5.20898438,3.0546875 L4.75195312,4.05078125 L2.36132812,4.05078125 L1.83984375,5.1171875 C2.87500518,5.26953201 3.69530947,5.65429379 4.30078125,6.27148438 C4.8203151,6.80273703 5.08007812,7.42773078 5.08007812,8.14648438 C5.08007812,8.56445521 4.99511804,8.9511701 4.82519531,9.30664062 C4.65527259,9.66211115 4.44140754,9.9648425 4.18359375,10.2148438 C3.92577996,10.464845 3.63867346,10.6660149 3.32226562,10.8183594 C2.87304463,11.0332042 2.41211174,11.140625 1.93945312,11.140625 C1.46288824,11.140625 1.11621202,11.0595711 0.899414062,10.8974609 C0.682616104,10.7353508 0.57421875,10.5566416 0.57421875,10.3613281 C0.57421875,10.2519526 0.619140176,10.1552739 0.708984375,10.0712891 C0.798828574,9.98730427 0.912108691,9.9453125 1.04882812,9.9453125 C1.15039113,9.9453125 1.23925743,9.96093734 1.31542969,9.9921875 C1.39160194,10.0234377 1.52148346,10.103515 1.70507812,10.2324219 C1.99804834,10.4355479 2.29492037,10.5371094 2.59570312,10.5371094 C3.05273666,10.5371094 3.45409983,10.3642595 3.79980469,10.0185547 C4.14550954,9.67284983 4.31835938,9.25195561 4.31835938,8.75585938 C4.31835938,8.27538822 4.16406404,7.82715052 3.85546875,7.41113281 C3.54687346,6.99511511 3.12109646,6.67382926 2.578125,6.44726562 C2.15234162,6.2714835 1.5722693,6.16992201 0.837890625,6.14257812 L2.36132812,3.0546875 L5.20898438,3.0546875 Z" id="5"></path>
                </g>
                <g id="Group-10" transform="translate(332.000000, 284.000000)" fill="#000000">
                    <path d="M0.486328125,168.865234 L3.515625,168.865234 L3.515625,169.75 L0.486328125,169.75 L0.486328125,168.865234 Z M10.7907921,164.054688 L10.3337609,165.050781 L7.94313587,165.050781 L7.4216515,166.117188 C8.45681293,166.269532 9.27711722,166.654294 9.882589,167.271484 C10.4021228,167.802737 10.6618859,168.427731 10.6618859,169.146484 C10.6618859,169.564455 10.5769258,169.95117 10.4070031,170.306641 C10.2370803,170.662111 10.0232153,170.964843 9.7654015,171.214844 C9.50758771,171.464845 9.22048121,171.666015 8.90407337,171.818359 C8.45485238,172.033204 7.99391949,172.140625 7.52126087,172.140625 C7.04469599,172.140625 6.69801977,172.059571 6.48122181,171.897461 C6.26442385,171.735351 6.1560265,171.556642 6.1560265,171.361328 C6.1560265,171.251953 6.20094793,171.155274 6.29079212,171.071289 C6.38063632,170.987304 6.49391644,170.945312 6.63063587,170.945312 C6.73219888,170.945312 6.82106518,170.960937 6.89723744,170.992188 C6.97340969,171.023438 7.10329121,171.103515 7.28688587,171.232422 C7.57985609,171.435548 7.87672812,171.537109 8.17751087,171.537109 C8.63454441,171.537109 9.03590758,171.36426 9.38161244,171.018555 C9.72731729,170.67285 9.90016712,170.251956 9.90016712,169.755859 C9.90016712,169.275388 9.74587179,168.827151 9.4372765,168.411133 C9.12868121,167.995115 8.70290421,167.673829 8.15993275,167.447266 C7.73414937,167.271483 7.15407705,167.169922 6.41969837,167.142578 L7.94313587,164.054688 L10.7907921,164.054688 Z" id="-5"></path>
                    <path d="M0.486328125,128.865234 L3.515625,128.865234 L3.515625,129.75 L0.486328125,129.75 L0.486328125,128.865234 Z M11.1657921,129.070312 L11.1657921,129.902344 L10.0993859,129.902344 L10.0993859,132 L9.132589,132 L9.132589,129.902344 L5.76930775,129.902344 L5.76930775,129.152344 L9.45485462,123.890625 L10.0993859,123.890625 L10.0993859,129.070312 L11.1657921,129.070312 Z M9.132589,129.070312 L9.132589,125.126953 L6.3435265,129.070312 L9.132589,129.070312 Z" id="-4"></path>
                    <path d="M0.486328125,87.8652344 L3.515625,87.8652344 L3.515625,88.75 L0.486328125,88.75 L0.486328125,87.8652344 Z M6.19118275,84.5664062 C6.41774638,84.0312473 6.70387633,83.6181655 7.04958119,83.3271484 C7.39528604,83.0361314 7.8259458,82.890625 8.34157337,82.890625 C8.97829531,82.890625 9.46657168,83.0976542 9.80641712,83.5117188 C10.0642309,83.820314 10.1931359,84.1503889 10.1931359,84.5019531 C10.1931359,85.080081 9.82985826,85.6777313 9.10329212,86.2949219 C9.59157582,86.4863291 9.96071275,86.7597638 10.210714,87.1152344 C10.4607152,87.4707049 10.585714,87.8886695 10.585714,88.3691406 C10.585714,89.0566441 10.3669662,89.6523412 9.929464,90.15625 C9.35914865,90.8125033 8.53298504,91.140625 7.45094837,91.140625 C6.91578945,91.140625 6.55153528,91.0742194 6.35817494,90.9414062 C6.1648146,90.8085931 6.06813587,90.6660164 6.06813587,90.5136719 C6.06813587,90.4003901 6.11403385,90.3007817 6.20583119,90.2148438 C6.29762852,90.1289058 6.40797898,90.0859375 6.53688587,90.0859375 C6.63454261,90.0859375 6.73415099,90.1015623 6.835714,90.1328125 C6.90212058,90.1523438 7.0525097,90.2236322 7.28688587,90.3466797 C7.52126205,90.4697272 7.6833698,90.5429686 7.773214,90.5664062 C7.91774597,90.6093752 8.0720413,90.6308594 8.23610462,90.6308594 C8.63454412,90.6308594 8.98122034,90.476564 9.27614369,90.1679688 C9.57106704,89.8593735 9.7185265,89.4941427 9.7185265,89.0722656 C9.7185265,88.7636703 9.65016781,88.4628921 9.51344837,88.1699219 C9.41188537,87.9511708 9.30055836,87.7851568 9.179464,87.671875 C9.01149441,87.5156242 8.78102796,87.3740241 8.48805775,87.2470703 C8.19508754,87.1201166 7.8962624,87.0566406 7.59157337,87.0566406 L7.40407337,87.0566406 L7.40407337,86.8808594 C7.71266867,86.8417967 8.02223588,86.7304697 8.33278431,86.546875 C8.64333274,86.3632803 8.86891642,86.1425794 9.00954212,85.8847656 C9.15016783,85.6269518 9.22047962,85.3437515 9.22047962,85.0351562 C9.22047962,84.6328105 9.09450432,84.3076184 8.84254994,84.0595703 C8.59059555,83.8115222 8.27712212,83.6875 7.90212025,83.6875 C7.29664847,83.6875 6.79079416,84.0117155 6.38454212,84.6601562 L6.19118275,84.5664062 Z" id="-3"></path>
                    <path d="M0.486328125,45.8652344 L3.515625,45.8652344 L3.515625,46.75 L0.486328125,46.75 L0.486328125,45.8652344 Z M11.0837609,47.4707031 L10.5271202,49 L5.83962025,49 L5.83962025,48.7832031 C7.21853339,47.5253843 8.18922681,46.4980509 8.75172962,45.7011719 C9.31423244,44.9042929 9.59547962,44.1757846 9.59547962,43.515625 C9.59547962,43.0117162 9.44118429,42.5976579 9.132589,42.2734375 C8.82399371,41.9492171 8.45485677,41.7871094 8.02516712,41.7871094 C7.63454017,41.7871094 7.28395774,41.901366 6.97340931,42.1298828 C6.66286088,42.3583996 6.43337099,42.6933572 6.28493275,43.1347656 L6.06813587,43.1347656 C6.16579261,42.4121058 6.41676667,41.8574238 6.82106556,41.4707031 C7.22536446,41.0839824 7.73024222,40.890625 8.335714,40.890625 C8.98024847,40.890625 9.51832903,41.0976542 9.94997181,41.5117188 C10.3816146,41.9257833 10.5974327,42.4140597 10.5974327,42.9765625 C10.5974327,43.3789083 10.5036837,43.781248 10.3161827,44.1835938 C10.0271188,44.8164094 9.55837349,45.4863246 8.90993275,46.1933594 C7.93727164,47.2558647 7.32985584,47.8964833 7.08766712,48.1152344 L9.16188587,48.1152344 C9.58376298,48.1152344 9.87965846,48.0996095 10.0495812,48.0683594 C10.2195039,48.0371092 10.3728227,47.9736333 10.5095421,47.8779297 C10.6462616,47.7822261 10.765401,47.6464853 10.866964,47.4707031 L11.0837609,47.4707031 Z" id="-2"></path>
                    <path d="M0.486328125,5.86523438 L3.515625,5.86523438 L3.515625,6.75 L0.486328125,6.75 L0.486328125,5.86523438 Z M6.98805775,1.83398438 L8.9216515,0.890625 L9.11501087,0.890625 L9.11501087,7.59960938 C9.11501087,8.0449241 9.13356538,8.32226508 9.17067494,8.43164062 C9.2077845,8.54101617 9.28493216,8.62499971 9.40212025,8.68359375 C9.51930834,8.74218779 9.7575872,8.77539059 10.116964,8.78320312 L10.116964,9 L7.12868275,9 L7.12868275,8.78320312 C7.50368462,8.77539059 7.7458697,8.74316435 7.85524525,8.68652344 C7.9646208,8.62988253 8.04079191,8.55371142 8.08376087,8.45800781 C8.12672984,8.36230421 8.148214,8.07617426 8.148214,7.59960938 L8.148214,3.31054688 C8.148214,2.73241898 8.12868295,2.36132895 8.08962025,2.19726562 C8.06227636,2.072265 8.01247217,1.98046904 7.94020619,1.921875 C7.8679402,1.86328096 7.78102701,1.83398438 7.679464,1.83398438 C7.53493203,1.83398438 7.33376216,1.89453064 7.07594837,2.015625 L6.98805775,1.83398438 Z" id="-1"></path>
                </g>
                <g id="Group-8" transform="translate(24.000000, 253.000000)" fill="#000000">
                    <path d="M249.486328,7.86523438 L252.515625,7.86523438 L252.515625,8.75 L249.486328,8.75 L249.486328,7.86523438 Z M255.988058,3.83398438 L257.921651,2.890625 L258.115011,2.890625 L258.115011,9.59960938 C258.115011,10.0449241 258.133565,10.3222651 258.170675,10.4316406 C258.207784,10.5410162 258.284932,10.6249997 258.40212,10.6835938 C258.519308,10.7421878 258.757587,10.7753906 259.116964,10.7832031 L259.116964,11 L256.128683,11 L256.128683,10.7832031 C256.503685,10.7753906 256.74587,10.7431643 256.855245,10.6865234 C256.964621,10.6298825 257.040792,10.5537114 257.083761,10.4580078 C257.12673,10.3623042 257.148214,10.0761743 257.148214,9.59960938 L257.148214,5.31054688 C257.148214,4.73241898 257.128683,4.36132895 257.08962,4.19726562 C257.062276,4.072265 257.012472,3.98046904 256.940206,3.921875 C256.86794,3.86328096 256.781027,3.83398438 256.679464,3.83398438 C256.534932,3.83398438 256.333762,3.89453064 256.075948,4.015625 L255.988058,3.83398438 Z" id="-1"></path>
                    <path d="M206.486328,7.86523438 L209.515625,7.86523438 L209.515625,8.75 L206.486328,8.75 L206.486328,7.86523438 Z M217.083761,9.47070312 L216.52712,11 L211.83962,11 L211.83962,10.7832031 C213.218533,9.52538434 214.189227,8.49805086 214.75173,7.70117188 C215.314232,6.90429289 215.59548,6.17578455 215.59548,5.515625 C215.59548,5.01171623 215.441184,4.59765787 215.132589,4.2734375 C214.823994,3.94921713 214.454857,3.78710938 214.025167,3.78710938 C213.63454,3.78710938 213.283958,3.90136604 212.973409,4.12988281 C212.662861,4.35839958 212.433371,4.69335717 212.284933,5.13476562 L212.068136,5.13476562 C212.165793,4.41210576 212.416767,3.85742381 212.821066,3.47070312 C213.225364,3.08398244 213.730242,2.890625 214.335714,2.890625 C214.980248,2.890625 215.518329,3.09765418 215.949972,3.51171875 C216.381615,3.92578332 216.597433,4.41405969 216.597433,4.9765625 C216.597433,5.37890826 216.503684,5.78124799 216.316183,6.18359375 C216.027119,6.81640941 215.558373,7.48632459 214.909933,8.19335938 C213.937272,9.25586469 213.329856,9.89648328 213.087667,10.1152344 L215.161886,10.1152344 C215.583763,10.1152344 215.879658,10.0996095 216.049581,10.0683594 C216.219504,10.0371092 216.372823,9.97363329 216.509542,9.87792969 C216.646262,9.78222608 216.765401,9.64648525 216.866964,9.47070312 L217.083761,9.47070312 Z" id="-2"></path>
                    <path d="M164.486328,7.86523438 L167.515625,7.86523438 L167.515625,8.75 L164.486328,8.75 L164.486328,7.86523438 Z M170.191183,4.56640625 C170.417746,4.03124732 170.703876,3.61816552 171.049581,3.32714844 C171.395286,3.03613136 171.825946,2.890625 172.341573,2.890625 C172.978295,2.890625 173.466572,3.09765418 173.806417,3.51171875 C174.064231,3.82031404 174.193136,4.15038887 174.193136,4.50195312 C174.193136,5.08008102 173.829858,5.67773129 173.103292,6.29492188 C173.591576,6.48632908 173.960713,6.75976385 174.210714,7.11523438 C174.460715,7.4707049 174.585714,7.88866947 174.585714,8.36914062 C174.585714,9.05664406 174.366966,9.65234123 173.929464,10.15625 C173.359149,10.8125033 172.532985,11.140625 171.450948,11.140625 C170.915789,11.140625 170.551535,11.0742194 170.358175,10.9414062 C170.164815,10.8085931 170.068136,10.6660164 170.068136,10.5136719 C170.068136,10.4003901 170.114034,10.3007817 170.205831,10.2148438 C170.297629,10.1289058 170.407979,10.0859375 170.536886,10.0859375 C170.634543,10.0859375 170.734151,10.1015623 170.835714,10.1328125 C170.902121,10.1523438 171.05251,10.2236322 171.286886,10.3466797 C171.521262,10.4697272 171.68337,10.5429686 171.773214,10.5664062 C171.917746,10.6093752 172.072041,10.6308594 172.236105,10.6308594 C172.634544,10.6308594 172.98122,10.476564 173.276144,10.1679688 C173.571067,9.85937346 173.718526,9.49414273 173.718526,9.07226562 C173.718526,8.76367033 173.650168,8.46289209 173.513448,8.16992188 C173.411885,7.95117078 173.300558,7.78515682 173.179464,7.671875 C173.011494,7.51562422 172.781028,7.37402407 172.488058,7.24707031 C172.195088,7.12011655 171.896262,7.05664062 171.591573,7.05664062 L171.404073,7.05664062 L171.404073,6.88085938 C171.712669,6.84179668 172.022236,6.73046967 172.332784,6.546875 C172.643333,6.36328033 172.868916,6.14257941 173.009542,5.88476562 C173.150168,5.62695184 173.22048,5.34375154 173.22048,5.03515625 C173.22048,4.63281049 173.094504,4.30761843 172.84255,4.05957031 C172.590596,3.8115222 172.277122,3.6875 171.90212,3.6875 C171.296648,3.6875 170.790794,4.01171551 170.384542,4.66015625 L170.191183,4.56640625 Z" id="-3"></path>
                    <path d="M124.486328,7.86523438 L127.515625,7.86523438 L127.515625,8.75 L124.486328,8.75 L124.486328,7.86523438 Z M135.165792,8.0703125 L135.165792,8.90234375 L134.099386,8.90234375 L134.099386,11 L133.132589,11 L133.132589,8.90234375 L129.769308,8.90234375 L129.769308,8.15234375 L133.454855,2.890625 L134.099386,2.890625 L134.099386,8.0703125 L135.165792,8.0703125 Z M133.132589,8.0703125 L133.132589,4.12695312 L130.343526,8.0703125 L133.132589,8.0703125 Z" id="-4"></path>
                    <path d="M82.4863281,7.86523438 L85.515625,7.86523438 L85.515625,8.75 L82.4863281,8.75 L82.4863281,7.86523438 Z M92.7907921,3.0546875 L92.3337609,4.05078125 L89.9431359,4.05078125 L89.4216515,5.1171875 C90.4568129,5.26953201 91.2771172,5.65429379 91.882589,6.27148438 C92.4021228,6.80273703 92.6618859,7.42773078 92.6618859,8.14648438 C92.6618859,8.56445521 92.5769258,8.9511701 92.4070031,9.30664062 C92.2370803,9.66211115 92.0232153,9.9648425 91.7654015,10.2148438 C91.5075877,10.464845 91.2204812,10.6660149 90.9040734,10.8183594 C90.4548524,11.0332042 89.9939195,11.140625 89.5212609,11.140625 C89.044696,11.140625 88.6980198,11.0595711 88.4812218,10.8974609 C88.2644239,10.7353508 88.1560265,10.5566416 88.1560265,10.3613281 C88.1560265,10.2519526 88.2009479,10.1552739 88.2907921,10.0712891 C88.3806363,9.98730427 88.4939164,9.9453125 88.6306359,9.9453125 C88.7321989,9.9453125 88.8210652,9.96093734 88.8972374,9.9921875 C88.9734097,10.0234377 89.1032912,10.103515 89.2868859,10.2324219 C89.5798561,10.4355479 89.8767281,10.5371094 90.1775109,10.5371094 C90.6345444,10.5371094 91.0359076,10.3642595 91.3816124,10.0185547 C91.7273173,9.67284983 91.9001671,9.25195561 91.9001671,8.75585938 C91.9001671,8.27538822 91.7458718,7.82715052 91.4372765,7.41113281 C91.1286812,6.99511511 90.7029042,6.67382926 90.1599327,6.44726562 C89.7341494,6.2714835 89.154077,6.16992201 88.4196984,6.14257812 L89.9431359,3.0546875 L92.7907921,3.0546875 Z" id="-5"></path>
                    <path d="M42.4863281,7.86523438 L45.515625,7.86523438 L45.515625,8.75 L42.4863281,8.75 L42.4863281,7.86523438 Z M52.960714,2.890625 L52.960714,3.10742188 C52.4450864,3.15820338 52.0241922,3.26074142 51.6980187,3.41503906 C51.3718452,3.56933671 51.0495828,3.80468592 50.7312218,4.12109375 C50.4128608,4.43750158 50.1491916,4.79003712 49.9402062,5.17871094 C49.7312208,5.56738476 49.5564178,6.0292942 49.4157921,6.56445312 C49.9782949,6.17773244 50.5427424,5.984375 51.1091515,5.984375 C51.652123,5.984375 52.1228214,6.20312281 52.5212609,6.640625 C52.9197004,7.07812719 53.1189171,7.64062156 53.1189171,8.328125 C53.1189171,8.99219082 52.9177473,9.59765352 52.5154015,10.1445312 C52.0310241,10.8085971 51.3904055,11.140625 50.5935265,11.140625 C50.050555,11.140625 49.5896221,10.9609393 49.210714,10.6015625 C48.4685228,9.90234025 48.0974328,8.99609932 48.0974328,7.8828125 C48.0974328,7.17187145 48.2400094,6.49609695 48.5251671,5.85546875 C48.8103248,5.21484055 49.2175473,4.64648686 49.7468468,4.15039062 C50.2761463,3.65429439 50.7829772,3.32031336 51.2673546,3.1484375 C51.751732,2.97656164 52.2028994,2.890625 52.6208702,2.890625 L52.960714,2.890625 Z M49.3161828,6.9921875 C49.2458699,7.51953389 49.210714,7.94531088 49.210714,8.26953125 C49.210714,8.64453312 49.2800492,9.05175562 49.4187218,9.49121094 C49.5573944,9.93066626 49.763447,10.2792956 50.0368859,10.5371094 C50.2361056,10.720704 50.4782907,10.8125 50.7634484,10.8125 C51.1032938,10.8125 51.4070017,10.6523454 51.6745812,10.3320312 C51.9421607,10.0117171 52.0759484,9.55469047 52.0759484,8.9609375 C52.0759484,8.29296541 51.9431372,7.71484619 51.6775109,7.2265625 C51.4118845,6.73827881 51.0349352,6.49414062 50.5466515,6.49414062 C50.3982133,6.49414062 50.2390352,6.52539031 50.0691124,6.58789062 C49.8991897,6.65039094 49.6482157,6.78515521 49.3161828,6.9921875 Z" id="-6"></path>
                    <path d="M0.486328125,7.86523438 L3.515625,7.86523438 L3.515625,8.75 L0.486328125,8.75 L0.486328125,7.86523438 Z M6.788839,3.0546875 L11.0486046,3.0546875 L11.0486046,3.27734375 L8.40016712,11.1640625 L7.74391712,11.1640625 L10.116964,4.00976562 L7.93141712,4.00976562 C7.49000867,4.00976562 7.17555869,4.06249947 6.98805775,4.16796875 C6.65993111,4.34765715 6.39626187,4.62499813 6.19704212,5 L6.02712025,4.93554688 L6.788839,3.0546875 Z" id="-7"></path>
                </g>
                <circle id="Oval" stroke="#FFFFFF" stroke-width="2" fill="#78AA30" cx="525" cy="163" r="5"></circle>
                <circle id="Oval" stroke="#FFFFFF" stroke-width="2" fill="#EB6767" cx="237" cy="289" r="5"></circle>
                <path d="M500.824219,148.361328 L497.549805,148.361328 L497.160156,149.263672 C497.032551,149.564455 496.96875,149.812825 496.96875,150.008789 C496.96875,150.268556 497.073567,150.45996 497.283203,150.583008 C497.406251,150.655925 497.709307,150.710612 498.192383,150.74707 L498.192383,151 L495.109375,151 L495.109375,150.74707 C495.442059,150.69694 495.715494,150.559083 495.929688,150.333496 C496.143881,150.107909 496.408202,149.641931 496.722656,148.935547 L500.038086,141.539062 L500.167969,141.539062 L503.510742,149.140625 C503.829754,149.860681 504.091796,150.314127 504.296875,150.500977 C504.451824,150.642253 504.670572,150.724284 504.953125,150.74707 L504.953125,151 L500.46875,151 L500.46875,150.74707 L500.65332,150.74707 C501.013348,150.74707 501.266275,150.696941 501.412109,150.59668 C501.51237,150.523763 501.5625,150.418946 501.5625,150.282227 C501.5625,150.200195 501.548828,150.115886 501.521484,150.029297 C501.51237,149.988281 501.444011,149.817384 501.316406,149.516602 L500.824219,148.361328 Z M500.591797,147.855469 L499.210938,144.663086 L497.789062,147.855469 L500.591797,147.855469 Z M511.458398,141.518555 L511.458398,141.833008 C510.984437,142.142905 510.635808,142.445962 510.4125,142.742188 C510.102602,143.152346 509.861068,143.678708 509.68789,144.321289 C509.469139,145.118819 509.359765,146.233066 509.359765,147.664062 C509.359765,149.013028 509.458885,150.061194 509.657129,150.808594 C509.855372,151.555993 510.125389,152.159828 510.467187,152.620117 C510.704168,152.939129 511.034568,153.2194 511.458398,153.460938 L511.458398,153.802734 C510.360085,153.433592 509.429268,152.680507 508.665918,151.543457 C507.902567,150.406407 507.520898,149.099617 507.520898,147.623047 C507.520898,146.164706 507.901428,144.873866 508.6625,143.750488 C509.423571,142.62711 510.355528,141.88314 511.458398,141.518555 Z M515.605273,141.730469 L519.946093,141.730469 L519.255663,143.494141 L515.605273,143.494141 L515.25664,144.416992 C516.828913,144.476237 518.038862,144.86816 518.886523,145.592773 C519.583792,146.189782 519.932421,146.932613 519.932421,147.821289 C519.932421,148.390953 519.770639,148.948077 519.44707,149.492676 C519.1235,150.037275 518.667776,150.456541 518.079882,150.750488 C517.491989,151.044435 516.847138,151.191406 516.145312,151.191406 C515.388798,151.191406 514.807749,151.050132 514.402148,150.767578 C514.119594,150.567056 513.97832,150.339194 513.97832,150.083984 C513.97832,149.88802 514.052375,149.714845 514.200488,149.564453 C514.3486,149.414062 514.520636,149.338867 514.716601,149.338867 C514.894336,149.338867 515.074347,149.375325 515.25664,149.448242 C515.438933,149.521159 515.751104,149.712564 516.193163,150.022461 C516.47116,150.213868 516.710415,150.346028 516.910937,150.418945 C517.052214,150.473633 517.211717,150.500977 517.389452,150.500977 C517.763152,150.500977 518.08102,150.364259 518.343066,150.09082 C518.605111,149.817381 518.736132,149.48926 518.736132,149.106445 C518.736132,148.304358 518.335094,147.652672 517.533007,147.151367 C516.73092,146.650063 515.719211,146.399414 514.497851,146.399414 C514.374803,146.399414 514.190235,146.401693 513.94414,146.40625 L515.605273,141.730469 Z M523.019726,153.454102 L523.019726,153.15332 C523.548374,152.925455 523.932322,152.630373 524.171581,152.268066 C524.41084,151.90576 524.530468,151.535484 524.530468,151.157227 C524.530468,151.079752 524.514517,151.020508 524.482616,150.979492 C524.450715,150.943034 524.418814,150.924805 524.386913,150.924805 C524.359569,150.924805 524.318554,150.940755 524.263866,150.972656 C524.131704,151.050131 523.967643,151.088867 523.771679,151.088867 C523.502797,151.088867 523.269238,150.984051 523.070995,150.774414 C522.872752,150.564778 522.773632,150.318686 522.773632,150.036133 C522.773632,149.73535 522.887563,149.47103 523.115429,149.243164 C523.343294,149.015298 523.619008,148.901367 523.942577,148.901367 C524.334506,148.901367 524.669464,149.052896 524.94746,149.355957 C525.225456,149.659018 525.364452,150.074867 525.364452,150.603516 C525.364452,151.255212 525.167351,151.833982 524.773144,152.339844 C524.378936,152.845706 523.794469,153.217121 523.019726,153.454102 Z M538.819334,151 L533.364256,151 L533.364256,150.849609 C535.036791,148.858063 536.051917,147.518233 536.409666,146.830078 C536.767415,146.141924 536.946287,145.46973 536.946287,144.813477 C536.946287,144.334959 536.798177,143.937339 536.501951,143.620605 C536.205726,143.303872 535.843425,143.145508 535.415037,143.145508 C534.713211,143.145508 534.16862,143.496416 533.781248,144.198242 L533.528319,144.109375 C533.774414,143.234371 534.148108,142.587242 534.649412,142.167969 C535.150717,141.748696 535.729487,141.539062 536.385741,141.539062 C536.855144,141.539062 537.283525,141.648436 537.670897,141.867188 C538.058268,142.085939 538.361325,142.385578 538.580076,142.766113 C538.798828,143.146649 538.908201,143.503254 538.908201,143.835938 C538.908201,144.44206 538.739583,145.057289 538.402342,145.681641 C537.942053,146.524744 536.937181,147.700513 535.387694,149.208984 L537.390623,149.208984 C537.882813,149.208984 538.20296,149.188477 538.351073,149.147461 C538.499185,149.106445 538.621092,149.036947 538.716795,148.938965 C538.812499,148.840983 538.937823,148.634767 539.092772,148.320312 L539.338866,148.320312 L538.819334,151 Z M542.043357,153.802734 L542.043357,153.488281 C542.517318,153.173827 542.865947,152.868491 543.089256,152.572266 C543.394596,152.162107 543.63613,151.638024 543.813865,151 C544.032616,150.197913 544.14199,149.081387 544.14199,147.650391 C544.14199,146.301426 544.04287,145.254398 543.844627,144.509277 C543.646384,143.764156 543.376367,143.161461 543.034568,142.701172 C542.797588,142.38216 542.467188,142.101889 542.043357,141.860352 L542.043357,141.518555 C543.14167,141.887697 544.072488,142.640782 544.835838,143.777832 C545.599188,144.914882 545.980857,146.221672 545.980857,147.698242 C545.980857,149.152025 545.599188,150.440587 544.835838,151.563965 C544.072488,152.687343 543.14167,153.433592 542.043357,153.802734 Z" id="A(5,-2)" fill="#000000"></path>
                <path d="M208.227539,305.084961 C209.107101,305.29004 209.724608,305.53841 210.080078,305.830078 C210.590497,306.244794 210.845703,306.782549 210.845703,307.443359 C210.845703,308.140628 210.565432,308.71712 210.004883,309.172852 C209.316728,309.724287 208.316413,310 207.003906,310 L202.293945,310 L202.293945,309.74707 C202.722333,309.74707 203.012857,309.707194 203.165527,309.627441 C203.318197,309.547688 203.425293,309.444011 203.486816,309.316406 C203.54834,309.188801 203.579102,308.874351 203.579102,308.373047 L203.579102,302.357422 C203.579102,301.856117 203.54834,301.540528 203.486816,301.410645 C203.425293,301.280761 203.317058,301.177084 203.162109,301.099609 C203.007161,301.022135 202.717776,300.983398 202.293945,300.983398 L202.293945,300.730469 L206.737305,300.730469 C207.799159,300.730469 208.551105,300.825032 208.993164,301.01416 C209.435224,301.203289 209.783853,301.485838 210.039062,301.861816 C210.294272,302.237795 210.421875,302.637693 210.421875,303.061523 C210.421875,303.50814 210.260093,303.90576 209.936523,304.254395 C209.612954,304.603029 209.043298,304.879882 208.227539,305.084961 Z M205.739258,304.900391 C206.386396,304.900391 206.863768,304.827475 207.171387,304.681641 C207.479005,304.535807 207.714843,304.33073 207.878906,304.066406 C208.04297,303.802082 208.125,303.464846 208.125,303.054688 C208.125,302.644529 208.044109,302.308432 207.882324,302.046387 C207.72054,301.784341 207.489259,301.584962 207.188477,301.448242 C206.887694,301.311523 206.404626,301.245443 205.739258,301.25 L205.739258,304.900391 Z M205.739258,305.433594 L205.739258,308.407227 L205.732422,308.749023 C205.732422,308.995118 205.795084,309.180826 205.92041,309.306152 C206.045736,309.431478 206.231444,309.494141 206.477539,309.494141 C206.842124,309.494141 207.178221,309.41325 207.48584,309.251465 C207.793459,309.08968 208.029296,308.854982 208.193359,308.547363 C208.357423,308.239745 208.439453,307.896812 208.439453,307.518555 C208.439453,307.08561 208.339194,306.697105 208.138672,306.353027 C207.93815,306.00895 207.662437,305.768555 207.311523,305.631836 C206.96061,305.495117 206.436527,305.429036 205.739258,305.433594 Z M217.685937,300.518555 L217.685937,300.833008 C217.211976,301.142905 216.863347,301.445962 216.640039,301.742188 C216.330141,302.152346 216.088607,302.678708 215.915429,303.321289 C215.696678,304.118819 215.587304,305.233066 215.587304,306.664062 C215.587304,308.013028 215.686424,309.061194 215.884668,309.808594 C216.082911,310.555993 216.352928,311.159828 216.694726,311.620117 C216.931707,311.939129 217.262107,312.2194 217.685937,312.460938 L217.685937,312.802734 C216.587624,312.433592 215.656807,311.680507 214.893457,310.543457 C214.130107,309.406407 213.748437,308.099617 213.748437,306.623047 C213.748437,305.164706 214.128967,303.873866 214.890039,302.750488 C215.65111,301.62711 216.583067,300.88314 217.685937,300.518555 Z M224.027148,307.491211 L220.041796,307.491211 L220.041796,306.076172 L224.027148,306.076172 L224.027148,307.491211 Z M232.008983,310 L226.553905,310 L226.553905,309.849609 C228.22644,307.858063 229.241566,306.518233 229.599315,305.830078 C229.957065,305.141924 230.135936,304.46973 230.135936,303.813477 C230.135936,303.334959 229.987826,302.937339 229.691601,302.620605 C229.395375,302.303872 229.033074,302.145508 228.604686,302.145508 C227.90286,302.145508 227.358269,302.496416 226.970897,303.198242 L226.717968,303.109375 C226.964063,302.234371 227.337757,301.587242 227.839061,301.167969 C228.340366,300.748696 228.919136,300.539062 229.57539,300.539062 C230.044793,300.539062 230.473174,300.648436 230.860546,300.867188 C231.247918,301.085939 231.550974,301.385578 231.769726,301.766113 C231.988477,302.146649 232.097851,302.503254 232.097851,302.835938 C232.097851,303.44206 231.929232,304.057289 231.591991,304.681641 C231.131702,305.524744 230.12683,306.700513 228.577343,308.208984 L230.580272,308.208984 C231.072462,308.208984 231.392609,308.188477 231.540722,308.147461 C231.688834,308.106445 231.810741,308.036947 231.906444,307.938965 C232.002148,307.840983 232.127472,307.634767 232.282421,307.320312 L232.528515,307.320312 L232.008983,310 Z M235.759374,312.454102 L235.759374,312.15332 C236.288022,311.925455 236.67197,311.630373 236.911229,311.268066 C237.150488,310.90576 237.270116,310.535484 237.270116,310.157227 C237.270116,310.079752 237.254165,310.020508 237.222264,309.979492 C237.190363,309.943034 237.158462,309.924805 237.126561,309.924805 C237.099217,309.924805 237.058202,309.940755 237.003514,309.972656 C236.871352,310.050131 236.707291,310.088867 236.511327,310.088867 C236.242445,310.088867 236.008886,309.984051 235.810643,309.774414 C235.6124,309.564778 235.51328,309.318686 235.51328,309.036133 C235.51328,308.73535 235.627211,308.47103 235.855077,308.243164 C236.082943,308.015298 236.358656,307.901367 236.682225,307.901367 C237.074154,307.901367 237.409112,308.052896 237.687108,308.355957 C237.965104,308.659018 238.1041,309.074867 238.1041,309.603516 C238.1041,310.255212 237.906999,310.833982 237.512792,311.339844 C237.118584,311.845706 236.534117,312.217121 235.759374,312.454102 Z M250.089256,307.491211 L246.103904,307.491211 L246.103904,306.076172 L250.089256,306.076172 L250.089256,307.491211 Z M256.833787,300.539062 L256.833787,308.120117 C256.833787,308.689781 256.858852,309.053222 256.908982,309.210449 C256.959112,309.367677 257.063929,309.496419 257.223435,309.59668 C257.382941,309.696941 257.638147,309.74707 257.98906,309.74707 L258.200974,309.74707 L258.200974,310 L253.320115,310 L253.320115,309.74707 L253.566209,309.74707 C253.962695,309.74707 254.245244,309.701498 254.413865,309.610352 C254.582485,309.519205 254.696417,309.393881 254.755662,309.234375 C254.814907,309.074869 254.844529,308.703453 254.844529,308.120117 L254.844529,303.314453 C254.844529,302.886066 254.824021,302.618327 254.783005,302.51123 C254.74199,302.404134 254.665656,302.312989 254.554002,302.237793 C254.442347,302.162597 254.313605,302.125 254.167771,302.125 C253.935348,302.125 253.652799,302.197916 253.320115,302.34375 L253.197068,302.097656 L256.608201,300.539062 L256.833787,300.539062 Z M261.295115,312.802734 L261.295115,312.488281 C261.769075,312.173827 262.117705,311.868491 262.341013,311.572266 C262.646353,311.162107 262.887887,310.638024 263.065622,310 C263.284373,309.197913 263.393747,308.081387 263.393747,306.650391 C263.393747,305.301426 263.294627,304.254398 263.096384,303.509277 C262.898141,302.764156 262.628124,302.161461 262.286325,301.701172 C262.049345,301.38216 261.718945,301.101889 261.295115,300.860352 L261.295115,300.518555 C262.393427,300.887697 263.324245,301.640782 264.087595,302.777832 C264.850945,303.914882 265.232615,305.221672 265.232615,306.698242 C265.232615,308.152025 264.850945,309.440587 264.087595,310.563965 C263.324245,311.687343 262.393427,312.433592 261.295115,312.802734 Z" id="B(-2,--1)" fill="#000000"></path>
            </g>
        </g>
    </g>
</svg>