<?xml version="1.0" encoding="UTF-8"?>
<svg width="643px" height="485px" viewBox="0 0 643 485" version="1.1" xmlns="http://www.w3.org/2000/svg" xmlns:xlink="http://www.w3.org/1999/xlink">
    <!-- Generator: Sketch 52 (66869) - http://www.bohemiancoding.com/sketch -->
    <title>img4</title>
    <desc>Created with Sketch.</desc>
    <g id="Page-1" stroke="none" stroke-width="1" fill="none" fill-rule="evenodd">
        <g id="WP" transform="translate(-392.000000, -3028.000000)">
            <g id="img4" transform="translate(392.000000, 3028.000000)">
                <g id="Group-12">
                    <polygon id="ion-android-arrow-dropright---Ionicons" fill="#8382EF" points="632 239 643 246.5 632 254"></polygon>
                    <polygon id="ion-android-arrow-dropright---Ionicons" fill="#8382EF" transform="translate(319.500000, 5.500000) rotate(-90.000000) translate(-319.500000, -5.500000) " points="314 -2 325 5.5 314 13"></polygon>
                    <path d="M3.37102473,248 C1.50925918,248 0,247.328427 0,246.5 C0,245.671573 1.50925918,245 3.37102473,245 L632.628975,245 C634.490741,245 636,245.671573 636,246.5 C636,247.328427 634.490741,248 632.628975,248 L3.37102473,248 Z" id="Rectangle" fill="#8382EF" transform="translate(318.000000, 246.500000) scale(-1, 1) translate(-318.000000, -246.500000) "></path>
                    <path d="M83.0335689,247.5 C81.6343174,247.5 80.5,246.828427 80.5,246 C80.5,245.171573 81.6343174,244.5 83.0335689,244.5 L555.966431,244.5 C557.365683,244.5 558.5,245.171573 558.5,246 C558.5,246.828427 557.365683,247.5 555.966431,247.5 L83.0335689,247.5 Z" id="Rectangle-Copy-5" fill="#8382EF" transform="translate(319.500000, 246.000000) scale(-1, 1) rotate(90.000000) translate(-319.500000, -246.000000) "></path>
                    <circle id="Oval" stroke="#FFFFFF" stroke-width="2" fill="#8382EF" cx="319.5" cy="246.5" r="5"></circle>
                    <rect id="Rectangle" fill="#8382EF" x="361" y="243" width="1" height="7"></rect>
                    <rect id="Rectangle-Copy-6" fill="#8382EF" x="402" y="243" width="1" height="7"></rect>
                    <rect id="Rectangle-Copy-7" fill="#8382EF" x="443" y="243" width="1" height="7"></rect>
                    <rect id="Rectangle-Copy-8" fill="#8382EF" x="484" y="243" width="1" height="7"></rect>
                    <rect id="Rectangle-Copy-9" fill="#8382EF" x="525" y="243" width="1" height="7"></rect>
                    <rect id="Rectangle-Copy-10" fill="#8382EF" x="566" y="243" width="1" height="7"></rect>
                    <rect id="Rectangle-Copy-11" fill="#8382EF" x="607" y="243" width="1" height="7"></rect>
                    <rect id="Rectangle" fill="#8382EF" x="31" y="243" width="1" height="7"></rect>
                    <rect id="Rectangle-Copy-6" fill="#8382EF" x="72" y="243" width="1" height="7"></rect>
                    <rect id="Rectangle-Copy-7" fill="#8382EF" x="113" y="243" width="1" height="7"></rect>
                    <rect id="Rectangle-Copy-8" fill="#8382EF" x="154" y="243" width="1" height="7"></rect>
                    <rect id="Rectangle-Copy-9" fill="#8382EF" x="195" y="243" width="1" height="7"></rect>
                    <rect id="Rectangle-Copy-10" fill="#8382EF" x="236" y="243" width="1" height="7"></rect>
                    <rect id="Rectangle-Copy-11" fill="#8382EF" x="277" y="243" width="1" height="7"></rect>
                    <rect id="Rectangle" fill="#8382EF" transform="translate(319.500000, 288.500000) rotate(90.000000) translate(-319.500000, -288.500000) " x="319" y="285" width="1" height="7"></rect>
                    <rect id="Rectangle-Copy-6" fill="#8382EF" transform="translate(319.500000, 329.500000) rotate(90.000000) translate(-319.500000, -329.500000) " x="319" y="326" width="1" height="7"></rect>
                    <rect id="Rectangle-Copy-7" fill="#8382EF" transform="translate(319.500000, 370.500000) rotate(90.000000) translate(-319.500000, -370.500000) " x="319" y="367" width="1" height="7"></rect>
                    <rect id="Rectangle-Copy-8" fill="#8382EF" transform="translate(319.500000, 411.500000) rotate(90.000000) translate(-319.500000, -411.500000) " x="319" y="408" width="1" height="7"></rect>
                    <rect id="Rectangle-Copy-9" fill="#8382EF" transform="translate(319.500000, 452.500000) rotate(90.000000) translate(-319.500000, -452.500000) " x="319" y="449" width="1" height="7"></rect>
                    <rect id="Rectangle" fill="#8382EF" transform="translate(319.500000, 40.500000) rotate(90.000000) translate(-319.500000, -40.500000) " x="319" y="37" width="1" height="7"></rect>
                    <rect id="Rectangle-Copy-6" fill="#8382EF" transform="translate(319.500000, 81.500000) rotate(90.000000) translate(-319.500000, -81.500000) " x="319" y="78" width="1" height="7"></rect>
                    <rect id="Rectangle-Copy-7" fill="#8382EF" transform="translate(319.500000, 122.500000) rotate(90.000000) translate(-319.500000, -122.500000) " x="319" y="119" width="1" height="7"></rect>
                    <rect id="Rectangle-Copy-8" fill="#8382EF" transform="translate(319.500000, 163.500000) rotate(90.000000) translate(-319.500000, -163.500000) " x="319" y="160" width="1" height="7"></rect>
                    <rect id="Rectangle-Copy-9" fill="#8382EF" transform="translate(319.500000, 204.500000) rotate(90.000000) translate(-319.500000, -204.500000) " x="319" y="201" width="1" height="7"></rect>
                    <path d="M360.40625,256.833984 L362.339844,255.890625 L362.533203,255.890625 L362.533203,262.599609 C362.533203,263.044924 362.551758,263.322265 362.588867,263.431641 C362.625977,263.541016 362.703124,263.625 362.820312,263.683594 C362.937501,263.742188 363.175779,263.775391 363.535156,263.783203 L363.535156,264 L360.546875,264 L360.546875,263.783203 C360.921877,263.775391 361.164062,263.743164 361.273438,263.686523 C361.382813,263.629883 361.458984,263.553711 361.501953,263.458008 C361.544922,263.362304 361.566406,263.076174 361.566406,262.599609 L361.566406,258.310547 C361.566406,257.732419 361.546875,257.361329 361.507812,257.197266 C361.480469,257.072265 361.430664,256.980469 361.358398,256.921875 C361.286132,256.863281 361.199219,256.833984 361.097656,256.833984 C360.953124,256.833984 360.751954,256.894531 360.494141,257.015625 L360.40625,256.833984 Z" id="1" fill="#000000"></path>
                    <path d="M405.501953,262.470703 L404.945312,264 L400.257812,264 L400.257812,263.783203 C401.636726,262.525384 402.607419,261.498051 403.169922,260.701172 C403.732425,259.904293 404.013672,259.175785 404.013672,258.515625 C404.013672,258.011716 403.859377,257.597658 403.550781,257.273438 C403.242186,256.949217 402.873049,256.787109 402.443359,256.787109 C402.052732,256.787109 401.70215,256.901366 401.391602,257.129883 C401.081053,257.3584 400.851563,257.693357 400.703125,258.134766 L400.486328,258.134766 C400.583985,257.412106 400.834959,256.857424 401.239258,256.470703 C401.643557,256.083982 402.148434,255.890625 402.753906,255.890625 C403.398441,255.890625 403.936521,256.097654 404.368164,256.511719 C404.799807,256.925783 405.015625,257.41406 405.015625,257.976562 C405.015625,258.378908 404.921876,258.781248 404.734375,259.183594 C404.445311,259.816409 403.976566,260.486325 403.328125,261.193359 C402.355464,262.255865 401.748048,262.896483 401.505859,263.115234 L403.580078,263.115234 C404.001955,263.115234 404.297851,263.09961 404.467773,263.068359 C404.637696,263.037109 404.791015,262.973633 404.927734,262.87793 C405.064454,262.782226 405.183593,262.646485 405.285156,262.470703 L405.501953,262.470703 Z" id="2" fill="#000000"></path>
                    <path d="M441.609375,257.566406 C441.835939,257.031247 442.122069,256.618166 442.467773,256.327148 C442.813478,256.036131 443.244138,255.890625 443.759766,255.890625 C444.396488,255.890625 444.884764,256.097654 445.224609,256.511719 C445.482423,256.820314 445.611328,257.150389 445.611328,257.501953 C445.611328,258.080081 445.248051,258.677731 444.521484,259.294922 C445.009768,259.486329 445.378905,259.759764 445.628906,260.115234 C445.878908,260.470705 446.003906,260.888669 446.003906,261.369141 C446.003906,262.056644 445.785158,262.652341 445.347656,263.15625 C444.777341,263.812503 443.951177,264.140625 442.869141,264.140625 C442.333982,264.140625 441.969728,264.074219 441.776367,263.941406 C441.583007,263.808593 441.486328,263.666016 441.486328,263.513672 C441.486328,263.40039 441.532226,263.300782 441.624023,263.214844 C441.715821,263.128906 441.826171,263.085938 441.955078,263.085938 C442.052735,263.085938 442.152343,263.101562 442.253906,263.132812 C442.320313,263.152344 442.470702,263.223632 442.705078,263.34668 C442.939454,263.469727 443.101562,263.542969 443.191406,263.566406 C443.335938,263.609375 443.490234,263.630859 443.654297,263.630859 C444.052736,263.630859 444.399413,263.476564 444.694336,263.167969 C444.989259,262.859373 445.136719,262.494143 445.136719,262.072266 C445.136719,261.76367 445.06836,261.462892 444.931641,261.169922 C444.830078,260.951171 444.718751,260.785157 444.597656,260.671875 C444.429687,260.515624 444.19922,260.374024 443.90625,260.24707 C443.61328,260.120117 443.314455,260.056641 443.009766,260.056641 L442.822266,260.056641 L442.822266,259.880859 C443.130861,259.841797 443.440428,259.73047 443.750977,259.546875 C444.061525,259.36328 444.287109,259.142579 444.427734,258.884766 C444.56836,258.626952 444.638672,258.343752 444.638672,258.035156 C444.638672,257.63281 444.512697,257.307618 444.260742,257.05957 C444.008788,256.811522 443.695314,256.6875 443.320312,256.6875 C442.714841,256.6875 442.208986,257.011716 441.802734,257.660156 L441.609375,257.566406 Z" id="3" fill="#000000"></path>
                    <path d="M487.583984,261.070312 L487.583984,261.902344 L486.517578,261.902344 L486.517578,264 L485.550781,264 L485.550781,261.902344 L482.1875,261.902344 L482.1875,261.152344 L485.873047,255.890625 L486.517578,255.890625 L486.517578,261.070312 L487.583984,261.070312 Z M485.550781,261.070312 L485.550781,257.126953 L482.761719,261.070312 L485.550781,261.070312 Z" id="4" fill="#000000"></path>
                    <path d="M527.208984,256.054688 L526.751953,257.050781 L524.361328,257.050781 L523.839844,258.117188 C524.875005,258.269532 525.695309,258.654294 526.300781,259.271484 C526.820315,259.802737 527.080078,260.427731 527.080078,261.146484 C527.080078,261.564455 526.995118,261.95117 526.825195,262.306641 C526.655273,262.662111 526.441408,262.964842 526.183594,263.214844 C525.92578,263.464845 525.638673,263.666015 525.322266,263.818359 C524.873045,264.033204 524.412112,264.140625 523.939453,264.140625 C523.462888,264.140625 523.116212,264.059571 522.899414,263.897461 C522.682616,263.735351 522.574219,263.556642 522.574219,263.361328 C522.574219,263.251953 522.61914,263.155274 522.708984,263.071289 C522.798829,262.987304 522.912109,262.945312 523.048828,262.945312 C523.150391,262.945312 523.239257,262.960937 523.31543,262.992188 C523.391602,263.023438 523.521483,263.103515 523.705078,263.232422 C523.998048,263.435548 524.29492,263.537109 524.595703,263.537109 C525.052737,263.537109 525.4541,263.36426 525.799805,263.018555 C526.14551,262.67285 526.318359,262.251956 526.318359,261.755859 C526.318359,261.275388 526.164064,260.827151 525.855469,260.411133 C525.546873,259.995115 525.121096,259.673829 524.578125,259.447266 C524.152342,259.271483 523.572269,259.169922 522.837891,259.142578 L524.361328,256.054688 L527.208984,256.054688 Z" id="5" fill="#000000"></path>
                    <path d="M568.378906,255.890625 L568.378906,256.107422 C567.863279,256.158203 567.442384,256.260741 567.116211,256.415039 C566.790037,256.569337 566.467775,256.804686 566.149414,257.121094 C565.831053,257.437502 565.567384,257.790037 565.358398,258.178711 C565.149413,258.567385 564.97461,259.029294 564.833984,259.564453 C565.396487,259.177732 565.960935,258.984375 566.527344,258.984375 C567.070315,258.984375 567.541014,259.203123 567.939453,259.640625 C568.337893,260.078127 568.537109,260.640622 568.537109,261.328125 C568.537109,261.992191 568.33594,262.597654 567.933594,263.144531 C567.449216,263.808597 566.808598,264.140625 566.011719,264.140625 C565.468747,264.140625 565.007814,263.960939 564.628906,263.601562 C563.886715,262.90234 563.515625,261.996099 563.515625,260.882812 C563.515625,260.171871 563.658202,259.496097 563.943359,258.855469 C564.228517,258.214841 564.63574,257.646487 565.165039,257.150391 C565.694339,256.654294 566.201169,256.320313 566.685547,256.148438 C567.169924,255.976562 567.621092,255.890625 568.039062,255.890625 L568.378906,255.890625 Z M564.734375,259.992188 C564.664062,260.519534 564.628906,260.945311 564.628906,261.269531 C564.628906,261.644533 564.698241,262.051756 564.836914,262.491211 C564.975587,262.930666 565.181639,263.279296 565.455078,263.537109 C565.654298,263.720704 565.896483,263.8125 566.181641,263.8125 C566.521486,263.8125 566.825194,263.652345 567.092773,263.332031 C567.360353,263.011717 567.494141,262.55469 567.494141,261.960938 C567.494141,261.292965 567.361329,260.714846 567.095703,260.226562 C566.830077,259.738279 566.453127,259.494141 565.964844,259.494141 C565.816406,259.494141 565.657227,259.52539 565.487305,259.587891 C565.317382,259.650391 565.066408,259.785155 564.734375,259.992188 Z" id="6" fill="#000000"></path>
                    <path d="M605.207031,256.054688 L609.466797,256.054688 L609.466797,256.277344 L606.818359,264.164062 L606.162109,264.164062 L608.535156,257.009766 L606.349609,257.009766 C605.908201,257.009766 605.593751,257.062499 605.40625,257.167969 C605.078123,257.347657 604.814454,257.624998 604.615234,258 L604.445312,257.935547 L605.207031,256.054688 Z" id="7" fill="#000000"></path>
                    <path d="M333.40625,200.833984 L335.339844,199.890625 L335.533203,199.890625 L335.533203,206.599609 C335.533203,207.044924 335.551758,207.322265 335.588867,207.431641 C335.625977,207.541016 335.703124,207.625 335.820312,207.683594 C335.937501,207.742188 336.175779,207.775391 336.535156,207.783203 L336.535156,208 L333.546875,208 L333.546875,207.783203 C333.921877,207.775391 334.164062,207.743164 334.273438,207.686523 C334.382813,207.629883 334.458984,207.553711 334.501953,207.458008 C334.544922,207.362304 334.566406,207.076174 334.566406,206.599609 L334.566406,202.310547 C334.566406,201.732419 334.546875,201.361329 334.507812,201.197266 C334.480469,201.072265 334.430664,200.980469 334.358398,200.921875 C334.286132,200.863281 334.199219,200.833984 334.097656,200.833984 C333.953124,200.833984 333.751954,200.894531 333.494141,201.015625 L333.40625,200.833984 Z" id="1-copy" fill="#000000"></path>
                    <path d="M337.501953,166.470703 L336.945312,168 L332.257812,168 L332.257812,167.783203 C333.636726,166.525384 334.607419,165.498051 335.169922,164.701172 C335.732425,163.904293 336.013672,163.175785 336.013672,162.515625 C336.013672,162.011716 335.859377,161.597658 335.550781,161.273438 C335.242186,160.949217 334.873049,160.787109 334.443359,160.787109 C334.052732,160.787109 333.70215,160.901366 333.391602,161.129883 C333.081053,161.3584 332.851563,161.693357 332.703125,162.134766 L332.486328,162.134766 C332.583985,161.412106 332.834959,160.857424 333.239258,160.470703 C333.643557,160.083982 334.148434,159.890625 334.753906,159.890625 C335.398441,159.890625 335.936521,160.097654 336.368164,160.511719 C336.799807,160.925783 337.015625,161.41406 337.015625,161.976562 C337.015625,162.378908 336.921876,162.781248 336.734375,163.183594 C336.445311,163.816409 335.976566,164.486325 335.328125,165.193359 C334.355464,166.255865 333.748048,166.896483 333.505859,167.115234 L335.580078,167.115234 C336.001955,167.115234 336.297851,167.09961 336.467773,167.068359 C336.637696,167.037109 336.791015,166.973633 336.927734,166.87793 C337.064454,166.782226 337.183593,166.646485 337.285156,166.470703 L337.501953,166.470703 Z" id="2" fill="#000000"></path>
                    <path d="M332.609375,120.566406 C332.835939,120.031247 333.122069,119.618166 333.467773,119.327148 C333.813478,119.036131 334.244138,118.890625 334.759766,118.890625 C335.396488,118.890625 335.884764,119.097654 336.224609,119.511719 C336.482423,119.820314 336.611328,120.150389 336.611328,120.501953 C336.611328,121.080081 336.248051,121.677731 335.521484,122.294922 C336.009768,122.486329 336.378905,122.759764 336.628906,123.115234 C336.878908,123.470705 337.003906,123.888669 337.003906,124.369141 C337.003906,125.056644 336.785158,125.652341 336.347656,126.15625 C335.777341,126.812503 334.951177,127.140625 333.869141,127.140625 C333.333982,127.140625 332.969728,127.074219 332.776367,126.941406 C332.583007,126.808593 332.486328,126.666016 332.486328,126.513672 C332.486328,126.40039 332.532226,126.300782 332.624023,126.214844 C332.715821,126.128906 332.826171,126.085938 332.955078,126.085938 C333.052735,126.085938 333.152343,126.101562 333.253906,126.132812 C333.320313,126.152344 333.470702,126.223632 333.705078,126.34668 C333.939454,126.469727 334.101562,126.542969 334.191406,126.566406 C334.335938,126.609375 334.490234,126.630859 334.654297,126.630859 C335.052736,126.630859 335.399413,126.476564 335.694336,126.167969 C335.989259,125.859373 336.136719,125.494143 336.136719,125.072266 C336.136719,124.76367 336.06836,124.462892 335.931641,124.169922 C335.830078,123.951171 335.718751,123.785157 335.597656,123.671875 C335.429687,123.515624 335.19922,123.374024 334.90625,123.24707 C334.61328,123.120117 334.314455,123.056641 334.009766,123.056641 L333.822266,123.056641 L333.822266,122.880859 C334.130861,122.841797 334.440428,122.73047 334.750977,122.546875 C335.061525,122.36328 335.287109,122.142579 335.427734,121.884766 C335.56836,121.626952 335.638672,121.343752 335.638672,121.035156 C335.638672,120.63281 335.512697,120.307618 335.260742,120.05957 C335.008788,119.811522 334.695314,119.6875 334.320312,119.6875 C333.714841,119.6875 333.208986,120.011716 332.802734,120.660156 L332.609375,120.566406 Z" id="3" fill="#000000"></path>
                    <path d="M337.583984,82.0703125 L337.583984,82.9023438 L336.517578,82.9023438 L336.517578,85 L335.550781,85 L335.550781,82.9023438 L332.1875,82.9023438 L332.1875,82.1523438 L335.873047,76.890625 L336.517578,76.890625 L336.517578,82.0703125 L337.583984,82.0703125 Z M335.550781,82.0703125 L335.550781,78.1269531 L332.761719,82.0703125 L335.550781,82.0703125 Z" id="4" fill="#000000"></path>
                    <path d="M337.208984,37.0546875 L336.751953,38.0507812 L334.361328,38.0507812 L333.839844,39.1171875 C334.875005,39.269532 335.695309,39.6542938 336.300781,40.2714844 C336.820315,40.802737 337.080078,41.4277308 337.080078,42.1464844 C337.080078,42.5644552 336.995118,42.9511701 336.825195,43.3066406 C336.655273,43.6621112 336.441408,43.9648425 336.183594,44.2148438 C335.92578,44.464845 335.638673,44.6660149 335.322266,44.8183594 C334.873045,45.0332042 334.412112,45.140625 333.939453,45.140625 C333.462888,45.140625 333.116212,45.0595711 332.899414,44.8974609 C332.682616,44.7353508 332.574219,44.5566416 332.574219,44.3613281 C332.574219,44.2519526 332.61914,44.1552739 332.708984,44.0712891 C332.798829,43.9873043 332.912109,43.9453125 333.048828,43.9453125 C333.150391,43.9453125 333.239257,43.9609373 333.31543,43.9921875 C333.391602,44.0234377 333.521483,44.103515 333.705078,44.2324219 C333.998048,44.4355479 334.29492,44.5371094 334.595703,44.5371094 C335.052737,44.5371094 335.4541,44.3642595 335.799805,44.0185547 C336.14551,43.6728498 336.318359,43.2519556 336.318359,42.7558594 C336.318359,42.2753882 336.164064,41.8271505 335.855469,41.4111328 C335.546873,40.9951151 335.121096,40.6738293 334.578125,40.4472656 C334.152342,40.2714835 333.572269,40.169922 332.837891,40.1425781 L334.361328,37.0546875 L337.208984,37.0546875 Z" id="5" fill="#000000"></path>
                    <path d="M332.486328,452.865234 L335.515625,452.865234 L335.515625,453.75 L332.486328,453.75 L332.486328,452.865234 Z M342.790792,448.054688 L342.333761,449.050781 L339.943136,449.050781 L339.421651,450.117188 C340.456813,450.269532 341.277117,450.654294 341.882589,451.271484 C342.402123,451.802737 342.661886,452.427731 342.661886,453.146484 C342.661886,453.564455 342.576926,453.95117 342.407003,454.306641 C342.23708,454.662111 342.023215,454.964842 341.765401,455.214844 C341.507588,455.464845 341.220481,455.666015 340.904073,455.818359 C340.454852,456.033204 339.993919,456.140625 339.521261,456.140625 C339.044696,456.140625 338.69802,456.059571 338.481222,455.897461 C338.264424,455.735351 338.156026,455.556642 338.156026,455.361328 C338.156026,455.251953 338.200948,455.155274 338.290792,455.071289 C338.380636,454.987304 338.493916,454.945312 338.630636,454.945312 C338.732199,454.945312 338.821065,454.960937 338.897237,454.992188 C338.97341,455.023438 339.103291,455.103515 339.286886,455.232422 C339.579856,455.435548 339.876728,455.537109 340.177511,455.537109 C340.634544,455.537109 341.035908,455.36426 341.381612,455.018555 C341.727317,454.67285 341.900167,454.251956 341.900167,453.755859 C341.900167,453.275388 341.745872,452.827151 341.437276,452.411133 C341.128681,451.995115 340.702904,451.673829 340.159933,451.447266 C339.734149,451.271483 339.154077,451.169922 338.419698,451.142578 L339.943136,448.054688 L342.790792,448.054688 Z" id="-5" fill="#000000"></path>
                    <path d="M332.486328,412.865234 L335.515625,412.865234 L335.515625,413.75 L332.486328,413.75 L332.486328,412.865234 Z M343.165792,413.070312 L343.165792,413.902344 L342.099386,413.902344 L342.099386,416 L341.132589,416 L341.132589,413.902344 L337.769308,413.902344 L337.769308,413.152344 L341.454855,407.890625 L342.099386,407.890625 L342.099386,413.070312 L343.165792,413.070312 Z M341.132589,413.070312 L341.132589,409.126953 L338.343526,413.070312 L341.132589,413.070312 Z" id="-4" fill="#000000"></path>
                    <path d="M332.486328,371.865234 L335.515625,371.865234 L335.515625,372.75 L332.486328,372.75 L332.486328,371.865234 Z M338.191183,368.566406 C338.417746,368.031247 338.703876,367.618166 339.049581,367.327148 C339.395286,367.036131 339.825946,366.890625 340.341573,366.890625 C340.978295,366.890625 341.466572,367.097654 341.806417,367.511719 C342.064231,367.820314 342.193136,368.150389 342.193136,368.501953 C342.193136,369.080081 341.829858,369.677731 341.103292,370.294922 C341.591576,370.486329 341.960713,370.759764 342.210714,371.115234 C342.460715,371.470705 342.585714,371.888669 342.585714,372.369141 C342.585714,373.056644 342.366966,373.652341 341.929464,374.15625 C341.359149,374.812503 340.532985,375.140625 339.450948,375.140625 C338.915789,375.140625 338.551535,375.074219 338.358175,374.941406 C338.164815,374.808593 338.068136,374.666016 338.068136,374.513672 C338.068136,374.40039 338.114034,374.300782 338.205831,374.214844 C338.297629,374.128906 338.407979,374.085938 338.536886,374.085938 C338.634543,374.085938 338.734151,374.101562 338.835714,374.132812 C338.902121,374.152344 339.05251,374.223632 339.286886,374.34668 C339.521262,374.469727 339.68337,374.542969 339.773214,374.566406 C339.917746,374.609375 340.072041,374.630859 340.236105,374.630859 C340.634544,374.630859 340.98122,374.476564 341.276144,374.167969 C341.571067,373.859373 341.718526,373.494143 341.718526,373.072266 C341.718526,372.76367 341.650168,372.462892 341.513448,372.169922 C341.411885,371.951171 341.300558,371.785157 341.179464,371.671875 C341.011494,371.515624 340.781028,371.374024 340.488058,371.24707 C340.195088,371.120117 339.896262,371.056641 339.591573,371.056641 L339.404073,371.056641 L339.404073,370.880859 C339.712669,370.841797 340.022236,370.73047 340.332784,370.546875 C340.643333,370.36328 340.868916,370.142579 341.009542,369.884766 C341.150168,369.626952 341.22048,369.343752 341.22048,369.035156 C341.22048,368.63281 341.094504,368.307618 340.84255,368.05957 C340.590596,367.811522 340.277122,367.6875 339.90212,367.6875 C339.296648,367.6875 338.790794,368.011716 338.384542,368.660156 L338.191183,368.566406 Z" id="-3" fill="#000000"></path>
                    <path d="M332.486328,329.865234 L335.515625,329.865234 L335.515625,330.75 L332.486328,330.75 L332.486328,329.865234 Z M343.083761,331.470703 L342.52712,333 L337.83962,333 L337.83962,332.783203 C339.218533,331.525384 340.189227,330.498051 340.75173,329.701172 C341.314232,328.904293 341.59548,328.175785 341.59548,327.515625 C341.59548,327.011716 341.441184,326.597658 341.132589,326.273438 C340.823994,325.949217 340.454857,325.787109 340.025167,325.787109 C339.63454,325.787109 339.283958,325.901366 338.973409,326.129883 C338.662861,326.3584 338.433371,326.693357 338.284933,327.134766 L338.068136,327.134766 C338.165793,326.412106 338.416767,325.857424 338.821066,325.470703 C339.225364,325.083982 339.730242,324.890625 340.335714,324.890625 C340.980248,324.890625 341.518329,325.097654 341.949972,325.511719 C342.381615,325.925783 342.597433,326.41406 342.597433,326.976562 C342.597433,327.378908 342.503684,327.781248 342.316183,328.183594 C342.027119,328.816409 341.558373,329.486325 340.909933,330.193359 C339.937272,331.255865 339.329856,331.896483 339.087667,332.115234 L341.161886,332.115234 C341.583763,332.115234 341.879658,332.09961 342.049581,332.068359 C342.219504,332.037109 342.372823,331.973633 342.509542,331.87793 C342.646262,331.782226 342.765401,331.646485 342.866964,331.470703 L343.083761,331.470703 Z" id="-2" fill="#000000"></path>
                    <path d="M332.486328,289.865234 L335.515625,289.865234 L335.515625,290.75 L332.486328,290.75 L332.486328,289.865234 Z M338.988058,285.833984 L340.921651,284.890625 L341.115011,284.890625 L341.115011,291.599609 C341.115011,292.044924 341.133565,292.322265 341.170675,292.431641 C341.207784,292.541016 341.284932,292.625 341.40212,292.683594 C341.519308,292.742188 341.757587,292.775391 342.116964,292.783203 L342.116964,293 L339.128683,293 L339.128683,292.783203 C339.503685,292.775391 339.74587,292.743164 339.855245,292.686523 C339.964621,292.629883 340.040792,292.553711 340.083761,292.458008 C340.12673,292.362304 340.148214,292.076174 340.148214,291.599609 L340.148214,287.310547 C340.148214,286.732419 340.128683,286.361329 340.08962,286.197266 C340.062276,286.072265 340.012472,285.980469 339.940206,285.921875 C339.86794,285.863281 339.781027,285.833984 339.679464,285.833984 C339.534932,285.833984 339.333762,285.894531 339.075948,286.015625 L338.988058,285.833984 Z" id="-1" fill="#000000"></path>
                    <path d="M273.486328,260.865234 L276.515625,260.865234 L276.515625,261.75 L273.486328,261.75 L273.486328,260.865234 Z M279.988058,256.833984 L281.921651,255.890625 L282.115011,255.890625 L282.115011,262.599609 C282.115011,263.044924 282.133565,263.322265 282.170675,263.431641 C282.207784,263.541016 282.284932,263.625 282.40212,263.683594 C282.519308,263.742188 282.757587,263.775391 283.116964,263.783203 L283.116964,264 L280.128683,264 L280.128683,263.783203 C280.503685,263.775391 280.74587,263.743164 280.855245,263.686523 C280.964621,263.629883 281.040792,263.553711 281.083761,263.458008 C281.12673,263.362304 281.148214,263.076174 281.148214,262.599609 L281.148214,258.310547 C281.148214,257.732419 281.128683,257.361329 281.08962,257.197266 C281.062276,257.072265 281.012472,256.980469 280.940206,256.921875 C280.86794,256.863281 280.781027,256.833984 280.679464,256.833984 C280.534932,256.833984 280.333762,256.894531 280.075948,257.015625 L279.988058,256.833984 Z" id="-1" fill="#000000"></path>
                    <path d="M230.486328,260.865234 L233.515625,260.865234 L233.515625,261.75 L230.486328,261.75 L230.486328,260.865234 Z M241.083761,262.470703 L240.52712,264 L235.83962,264 L235.83962,263.783203 C237.218533,262.525384 238.189227,261.498051 238.75173,260.701172 C239.314232,259.904293 239.59548,259.175785 239.59548,258.515625 C239.59548,258.011716 239.441184,257.597658 239.132589,257.273438 C238.823994,256.949217 238.454857,256.787109 238.025167,256.787109 C237.63454,256.787109 237.283958,256.901366 236.973409,257.129883 C236.662861,257.3584 236.433371,257.693357 236.284933,258.134766 L236.068136,258.134766 C236.165793,257.412106 236.416767,256.857424 236.821066,256.470703 C237.225364,256.083982 237.730242,255.890625 238.335714,255.890625 C238.980248,255.890625 239.518329,256.097654 239.949972,256.511719 C240.381615,256.925783 240.597433,257.41406 240.597433,257.976562 C240.597433,258.378908 240.503684,258.781248 240.316183,259.183594 C240.027119,259.816409 239.558373,260.486325 238.909933,261.193359 C237.937272,262.255865 237.329856,262.896483 237.087667,263.115234 L239.161886,263.115234 C239.583763,263.115234 239.879658,263.09961 240.049581,263.068359 C240.219504,263.037109 240.372823,262.973633 240.509542,262.87793 C240.646262,262.782226 240.765401,262.646485 240.866964,262.470703 L241.083761,262.470703 Z" id="-2" fill="#000000"></path>
                    <path d="M188.486328,260.865234 L191.515625,260.865234 L191.515625,261.75 L188.486328,261.75 L188.486328,260.865234 Z M194.191183,257.566406 C194.417746,257.031247 194.703876,256.618166 195.049581,256.327148 C195.395286,256.036131 195.825946,255.890625 196.341573,255.890625 C196.978295,255.890625 197.466572,256.097654 197.806417,256.511719 C198.064231,256.820314 198.193136,257.150389 198.193136,257.501953 C198.193136,258.080081 197.829858,258.677731 197.103292,259.294922 C197.591576,259.486329 197.960713,259.759764 198.210714,260.115234 C198.460715,260.470705 198.585714,260.888669 198.585714,261.369141 C198.585714,262.056644 198.366966,262.652341 197.929464,263.15625 C197.359149,263.812503 196.532985,264.140625 195.450948,264.140625 C194.915789,264.140625 194.551535,264.074219 194.358175,263.941406 C194.164815,263.808593 194.068136,263.666016 194.068136,263.513672 C194.068136,263.40039 194.114034,263.300782 194.205831,263.214844 C194.297629,263.128906 194.407979,263.085938 194.536886,263.085938 C194.634543,263.085938 194.734151,263.101562 194.835714,263.132812 C194.902121,263.152344 195.05251,263.223632 195.286886,263.34668 C195.521262,263.469727 195.68337,263.542969 195.773214,263.566406 C195.917746,263.609375 196.072041,263.630859 196.236105,263.630859 C196.634544,263.630859 196.98122,263.476564 197.276144,263.167969 C197.571067,262.859373 197.718526,262.494143 197.718526,262.072266 C197.718526,261.76367 197.650168,261.462892 197.513448,261.169922 C197.411885,260.951171 197.300558,260.785157 197.179464,260.671875 C197.011494,260.515624 196.781028,260.374024 196.488058,260.24707 C196.195088,260.120117 195.896262,260.056641 195.591573,260.056641 L195.404073,260.056641 L195.404073,259.880859 C195.712669,259.841797 196.022236,259.73047 196.332784,259.546875 C196.643333,259.36328 196.868916,259.142579 197.009542,258.884766 C197.150168,258.626952 197.22048,258.343752 197.22048,258.035156 C197.22048,257.63281 197.094504,257.307618 196.84255,257.05957 C196.590596,256.811522 196.277122,256.6875 195.90212,256.6875 C195.296648,256.6875 194.790794,257.011716 194.384542,257.660156 L194.191183,257.566406 Z" id="-3" fill="#000000"></path>
                    <path d="M148.486328,260.865234 L151.515625,260.865234 L151.515625,261.75 L148.486328,261.75 L148.486328,260.865234 Z M159.165792,261.070312 L159.165792,261.902344 L158.099386,261.902344 L158.099386,264 L157.132589,264 L157.132589,261.902344 L153.769308,261.902344 L153.769308,261.152344 L157.454855,255.890625 L158.099386,255.890625 L158.099386,261.070312 L159.165792,261.070312 Z M157.132589,261.070312 L157.132589,257.126953 L154.343526,261.070312 L157.132589,261.070312 Z" id="-4" fill="#000000"></path>
                    <path d="M106.486328,260.865234 L109.515625,260.865234 L109.515625,261.75 L106.486328,261.75 L106.486328,260.865234 Z M116.790792,256.054688 L116.333761,257.050781 L113.943136,257.050781 L113.421651,258.117188 C114.456813,258.269532 115.277117,258.654294 115.882589,259.271484 C116.402123,259.802737 116.661886,260.427731 116.661886,261.146484 C116.661886,261.564455 116.576926,261.95117 116.407003,262.306641 C116.23708,262.662111 116.023215,262.964842 115.765401,263.214844 C115.507588,263.464845 115.220481,263.666015 114.904073,263.818359 C114.454852,264.033204 113.993919,264.140625 113.521261,264.140625 C113.044696,264.140625 112.69802,264.059571 112.481222,263.897461 C112.264424,263.735351 112.156026,263.556642 112.156026,263.361328 C112.156026,263.251953 112.200948,263.155274 112.290792,263.071289 C112.380636,262.987304 112.493916,262.945312 112.630636,262.945312 C112.732199,262.945312 112.821065,262.960937 112.897237,262.992188 C112.97341,263.023438 113.103291,263.103515 113.286886,263.232422 C113.579856,263.435548 113.876728,263.537109 114.177511,263.537109 C114.634544,263.537109 115.035908,263.36426 115.381612,263.018555 C115.727317,262.67285 115.900167,262.251956 115.900167,261.755859 C115.900167,261.275388 115.745872,260.827151 115.437276,260.411133 C115.128681,259.995115 114.702904,259.673829 114.159933,259.447266 C113.734149,259.271483 113.154077,259.169922 112.419698,259.142578 L113.943136,256.054688 L116.790792,256.054688 Z" id="-5" fill="#000000"></path>
                    <path d="M66.4863281,260.865234 L69.515625,260.865234 L69.515625,261.75 L66.4863281,261.75 L66.4863281,260.865234 Z M76.960714,255.890625 L76.960714,256.107422 C76.4450864,256.158203 76.0241922,256.260741 75.6980187,256.415039 C75.3718452,256.569337 75.0495828,256.804686 74.7312218,257.121094 C74.4128608,257.437502 74.1491916,257.790037 73.9402062,258.178711 C73.7312208,258.567385 73.5564178,259.029294 73.4157921,259.564453 C73.9782949,259.177732 74.5427424,258.984375 75.1091515,258.984375 C75.652123,258.984375 76.1228214,259.203123 76.5212609,259.640625 C76.9197004,260.078127 77.1189171,260.640622 77.1189171,261.328125 C77.1189171,261.992191 76.9177473,262.597654 76.5154015,263.144531 C76.0310241,263.808597 75.3904055,264.140625 74.5935265,264.140625 C74.050555,264.140625 73.5896221,263.960939 73.210714,263.601562 C72.4685228,262.90234 72.0974327,261.996099 72.0974327,260.882812 C72.0974327,260.171871 72.2400094,259.496097 72.5251671,258.855469 C72.8103248,258.214841 73.2175473,257.646487 73.7468468,257.150391 C74.2761463,256.654294 74.7829772,256.320313 75.2673546,256.148438 C75.751732,255.976562 76.2028994,255.890625 76.6208702,255.890625 L76.960714,255.890625 Z M73.3161827,259.992188 C73.2458699,260.519534 73.210714,260.945311 73.210714,261.269531 C73.210714,261.644533 73.2800492,262.051756 73.4187218,262.491211 C73.5573944,262.930666 73.763447,263.279296 74.0368859,263.537109 C74.2361056,263.720704 74.4782907,263.8125 74.7634484,263.8125 C75.1032938,263.8125 75.4070017,263.652345 75.6745812,263.332031 C75.9421607,263.011717 76.0759484,262.55469 76.0759484,261.960938 C76.0759484,261.292965 75.9431372,260.714846 75.6775109,260.226562 C75.4118845,259.738279 75.0349352,259.494141 74.5466515,259.494141 C74.3982133,259.494141 74.2390352,259.52539 74.0691124,259.587891 C73.8991897,259.650391 73.6482157,259.785155 73.3161827,259.992188 Z" id="-6" fill="#000000"></path>
                    <path d="M24.4863281,260.865234 L27.515625,260.865234 L27.515625,261.75 L24.4863281,261.75 L24.4863281,260.865234 Z M30.788839,256.054688 L35.0486046,256.054688 L35.0486046,256.277344 L32.4001671,264.164062 L31.7439171,264.164062 L34.116964,257.009766 L31.9314171,257.009766 C31.4900087,257.009766 31.1755587,257.062499 30.9880577,257.167969 C30.6599311,257.347657 30.3962619,257.624998 30.1970421,258 L30.0271202,257.935547 L30.788839,256.054688 Z" id="-7" fill="#000000"></path>
                    <path d="M319.5,81 L485,81" id="Line" stroke="#979797" stroke-linecap="square" stroke-dasharray="5"></path>
                    <path d="M485,329.352617 L485,81" id="Line-2" stroke="#979797" stroke-linecap="square" stroke-dasharray="5"></path>
                    <path d="M154.5,248 L154.5,330" id="Line-3" stroke="#979797" stroke-linecap="square" stroke-dasharray="5"></path>
                    <path d="M485,329.5 L154.5,329.5" id="Line-4" stroke="#979797" stroke-linecap="square" stroke-dasharray="5"></path>
                    <path d="M457.344727,345.518555 L457.344727,348.731445 L457.078125,348.731445 C456.877603,347.892899 456.503909,347.250328 455.957031,346.803711 C455.410154,346.357094 454.790368,346.133789 454.097656,346.133789 C453.518877,346.133789 452.987958,346.300129 452.504883,346.632812 C452.021807,346.965496 451.668621,347.400713 451.445312,347.938477 C451.158202,348.626631 451.014648,349.392248 451.014648,350.235352 C451.014648,351.064783 451.119465,351.820146 451.329102,352.501465 C451.538738,353.182783 451.86686,353.697752 452.313477,354.046387 C452.760093,354.395021 453.338864,354.569336 454.049805,354.569336 C454.633141,354.569336 455.167478,354.441733 455.652832,354.186523 C456.138186,353.931314 456.649737,353.49154 457.1875,352.867188 L457.1875,353.666992 C456.667966,354.209313 456.126793,354.602375 455.563965,354.846191 C455.001137,355.090008 454.343754,355.211914 453.591797,355.211914 C452.60286,355.211914 451.72445,355.013674 450.956543,354.617188 C450.188635,354.220701 449.596193,353.651045 449.179199,352.908203 C448.762205,352.165361 448.553711,351.374679 448.553711,350.536133 C448.553711,349.652014 448.784991,348.813481 449.247559,348.020508 C449.710126,347.227535 450.334469,346.612307 451.120605,346.174805 C451.906742,345.737302 452.741858,345.518555 453.625977,345.518555 C454.277673,345.518555 454.965817,345.659829 455.69043,345.942383 C456.109703,346.106446 456.376302,346.188477 456.490234,346.188477 C456.636068,346.188477 456.762532,346.134929 456.869629,346.027832 C456.976726,345.920735 457.046224,345.750978 457.078125,345.518555 L457.344727,345.518555 Z M464.458398,345.518555 L464.458398,345.833008 C463.984438,346.142905 463.635808,346.445962 463.4125,346.742188 C463.102603,347.152346 462.861069,347.678708 462.687891,348.321289 C462.46914,349.118819 462.359766,350.233066 462.359766,351.664062 C462.359766,353.013028 462.458886,354.061194 462.657129,354.808594 C462.855372,355.555993 463.125389,356.159828 463.467188,356.620117 C463.704168,356.939129 464.034568,357.2194 464.458398,357.460938 L464.458398,357.802734 C463.360086,357.433592 462.429268,356.680507 461.665918,355.543457 C460.902568,354.406407 460.520898,353.099617 460.520898,351.623047 C460.520898,350.164706 460.901428,348.873866 461.6625,347.750488 C462.423572,346.62711 463.355528,345.88314 464.458398,345.518555 Z M472.385547,349.56543 L474.942187,353.359375 C475.366018,353.988284 475.667935,354.369954 475.847949,354.504395 C476.027963,354.638835 476.241014,354.719726 476.487109,354.74707 L476.487109,355 L471.968555,355 L471.968555,354.74707 C472.328583,354.719726 472.561002,354.665039 472.66582,354.583008 C472.770639,354.500976 472.823047,354.400717 472.823047,354.282227 C472.823047,354.200195 472.807097,354.127279 472.775195,354.063477 C472.711393,353.926757 472.551889,353.671551 472.29668,353.297852 L470.943164,351.294922 L469.528125,353.024414 C469.104295,353.548505 468.892383,353.90397 468.892383,354.09082 C468.892383,354.222982 468.94707,354.346028 469.056445,354.459961 C469.165821,354.573894 469.327603,354.655924 469.541797,354.706055 C469.6375,354.733399 469.833462,354.74707 470.129687,354.74707 L470.129687,355 L466.568164,355 L466.568164,354.74707 C466.973765,354.687825 467.292772,354.578451 467.525195,354.418945 C467.830535,354.209309 468.256638,353.771813 468.803516,353.106445 L470.642383,350.864258 L468.283984,347.398438 C467.896613,346.828773 467.675586,346.512045 467.620898,346.448242 C467.497851,346.297851 467.377084,346.190756 467.258594,346.126953 C467.140104,346.063151 466.976043,346.0153 466.766406,345.983398 L466.766406,345.730469 L471.366992,345.730469 L471.366992,345.983398 L471.13457,345.983398 C470.870246,345.983398 470.685678,346.025553 470.580859,346.109863 C470.476041,346.194174 470.423633,346.30013 470.423633,346.427734 C470.423633,346.527995 470.439583,346.614583 470.471484,346.6875 L470.943164,347.398438 L472.091602,349.148438 L473.069141,347.952148 C473.570445,347.336911 473.821094,346.906251 473.821094,346.660156 C473.821094,346.537109 473.785775,346.423178 473.715137,346.318359 C473.644498,346.213541 473.5431,346.131511 473.410937,346.072266 C473.278775,346.013021 473.073699,345.983398 472.795703,345.983398 L472.795703,345.730469 L476.206836,345.730469 L476.206836,345.983398 C475.937954,345.987956 475.721485,346.020996 475.557422,346.08252 C475.393359,346.144043 475.217905,346.259114 475.031055,346.427734 C474.912565,346.53711 474.616344,346.876625 474.142383,347.446289 L472.385547,349.56543 Z M482.992383,345.539062 L482.992383,353.120117 C482.992383,353.689781 483.017448,354.053222 483.067578,354.210449 C483.117709,354.367677 483.222525,354.496419 483.382031,354.59668 C483.541537,354.696941 483.796743,354.74707 484.147656,354.74707 L484.35957,354.74707 L484.35957,355 L479.478711,355 L479.478711,354.74707 L479.724805,354.74707 C480.121291,354.74707 480.40384,354.701498 480.572461,354.610352 C480.741082,354.519205 480.855013,354.393881 480.914258,354.234375 C480.973503,354.074869 481.003125,353.703453 481.003125,353.120117 L481.003125,348.314453 C481.003125,347.886066 480.982617,347.618327 480.941602,347.51123 C480.900586,347.404134 480.824252,347.312989 480.712598,347.237793 C480.600943,347.162597 480.472201,347.125 480.326367,347.125 C480.093944,347.125 479.811395,347.197916 479.478711,347.34375 L479.355664,347.097656 L482.766797,345.539062 L482.992383,345.539062 Z M487.980078,357.454102 L487.980078,357.15332 C488.508727,356.925455 488.892675,356.630373 489.131934,356.268066 C489.371193,355.90576 489.49082,355.535484 489.49082,355.157227 C489.49082,355.079752 489.47487,355.020508 489.442969,354.979492 C489.411068,354.943034 489.379167,354.924805 489.347266,354.924805 C489.319922,354.924805 489.278907,354.940755 489.224219,354.972656 C489.092057,355.050131 488.927996,355.088867 488.732031,355.088867 C488.46315,355.088867 488.229591,354.984051 488.031348,354.774414 C487.833104,354.564778 487.733984,354.318686 487.733984,354.036133 C487.733984,353.73535 487.847916,353.47103 488.075781,353.243164 C488.303647,353.015298 488.57936,352.901367 488.90293,352.901367 C489.294859,352.901367 489.629816,353.052896 489.907812,353.355957 C490.185809,353.659018 490.324805,354.074867 490.324805,354.603516 C490.324805,355.255212 490.127704,355.833982 489.733496,356.339844 C489.339288,356.845706 488.754822,357.217121 487.980078,357.454102 Z M507.416406,345.730469 L507.416406,345.983398 C507.111066,346.024414 506.876368,346.113281 506.712305,346.25 C506.484439,346.441407 506.124417,346.963212 505.632227,347.81543 L503.622461,351.171875 L503.622461,353.414062 C503.622461,353.892581 503.647526,354.189941 503.697656,354.306152 C503.747787,354.422364 503.846907,354.524902 503.99502,354.61377 C504.143132,354.702637 504.340233,354.74707 504.586328,354.74707 L505.105859,354.74707 L505.105859,355 L499.903711,355 L499.903711,354.74707 L500.389063,354.74707 C500.662501,354.74707 500.878971,354.699219 501.038477,354.603516 C501.156967,354.539713 501.25039,354.430339 501.31875,354.275391 C501.36888,354.166015 501.393945,353.878909 501.393945,353.414062 L501.393945,351.554688 L499.213281,347.583008 C498.780336,346.79915 498.475001,346.337729 498.297266,346.19873 C498.11953,346.059732 497.882554,345.987956 497.586328,345.983398 L497.586328,345.730469 L502.029688,345.730469 L502.029688,345.983398 L501.831445,345.983398 C501.562564,345.983398 501.374577,346.022135 501.26748,346.099609 C501.160384,346.177084 501.106836,346.259114 501.106836,346.345703 C501.106836,346.509766 501.289126,346.922197 501.653711,347.583008 L503.328516,350.652344 L504.996484,347.856445 C505.4112,347.172848 505.618555,346.719402 505.618555,346.496094 C505.618555,346.373046 505.55931,346.270508 505.44082,346.188477 C505.285872,346.074544 505.001044,346.006185 504.586328,345.983398 L504.586328,345.730469 L507.416406,345.730469 Z M515.220508,355 L509.76543,355 L509.76543,354.849609 C511.437964,352.858063 512.453091,351.518233 512.81084,350.830078 C513.168589,350.141924 513.347461,349.46973 513.347461,348.813477 C513.347461,348.334959 513.19935,347.937339 512.903125,347.620605 C512.6069,347.303872 512.244598,347.145508 511.816211,347.145508 C511.114385,347.145508 510.569794,347.496416 510.182422,348.198242 L509.929492,348.109375 C510.175587,347.234371 510.549281,346.587242 511.050586,346.167969 C511.551891,345.748696 512.130661,345.539062 512.786914,345.539062 C513.256317,345.539062 513.684699,345.648436 514.07207,345.867188 C514.459442,346.085939 514.762499,346.385578 514.98125,346.766113 C515.200001,347.146649 515.309375,347.503254 515.309375,347.835938 C515.309375,348.44206 515.140757,349.057289 514.803516,349.681641 C514.343227,350.524744 513.338354,351.700513 511.788867,353.208984 L513.791797,353.208984 C514.283987,353.208984 514.604133,353.188477 514.752246,353.147461 C514.900359,353.106445 515.022265,353.036947 515.117969,352.938965 C515.213672,352.840983 515.338997,352.634767 515.493945,352.320312 L515.740039,352.320312 L515.220508,355 Z M518.444531,357.802734 L518.444531,357.488281 C518.918492,357.173827 519.267121,356.868491 519.49043,356.572266 C519.79577,356.162107 520.037304,355.638024 520.215039,355 C520.43379,354.197913 520.543164,353.081387 520.543164,351.650391 C520.543164,350.301426 520.444044,349.254398 520.245801,348.509277 C520.047558,347.764156 519.777541,347.161461 519.435742,346.701172 C519.198762,346.38216 518.868361,346.101889 518.444531,345.860352 L518.444531,345.518555 C519.542844,345.887697 520.473662,346.640782 521.237012,347.777832 C522.000362,348.914882 522.382031,350.221672 522.382031,351.698242 C522.382031,353.152025 522.000362,354.440587 521.237012,355.563965 C520.473662,356.687343 519.542844,357.433592 518.444531,357.802734 Z" id="C(X1,-Y2)" fill="#000000"></path>
                    <circle id="Oval" stroke="#FFFFFF" stroke-width="2" fill="#EB6767" cx="486" cy="329" r="5"></circle>
                    <rect id="Rectangle" fill="#000000" transform="translate(318.739588, 204.935309) rotate(-37.000000) translate(-318.739588, -204.935309) " x="114.239588" y="202.435309" width="409" height="5"></rect>
                    <path d="M122.227539,350.084961 C123.107101,350.29004 123.724608,350.53841 124.080078,350.830078 C124.590497,351.244794 124.845703,351.782549 124.845703,352.443359 C124.845703,353.140628 124.565432,353.71712 124.004883,354.172852 C123.316728,354.724287 122.316413,355 121.003906,355 L116.293945,355 L116.293945,354.74707 C116.722333,354.74707 117.012857,354.707194 117.165527,354.627441 C117.318197,354.547688 117.425293,354.444011 117.486816,354.316406 C117.54834,354.188801 117.579102,353.874351 117.579102,353.373047 L117.579102,347.357422 C117.579102,346.856117 117.54834,346.540528 117.486816,346.410645 C117.425293,346.280761 117.317058,346.177084 117.162109,346.099609 C117.007161,346.022135 116.717776,345.983398 116.293945,345.983398 L116.293945,345.730469 L120.737305,345.730469 C121.799159,345.730469 122.551105,345.825032 122.993164,346.01416 C123.435224,346.203289 123.783853,346.485838 124.039062,346.861816 C124.294272,347.237795 124.421875,347.637693 124.421875,348.061523 C124.421875,348.50814 124.260093,348.90576 123.936523,349.254395 C123.612954,349.603029 123.043298,349.879882 122.227539,350.084961 Z M119.739258,349.900391 C120.386396,349.900391 120.863768,349.827475 121.171387,349.681641 C121.479005,349.535807 121.714843,349.33073 121.878906,349.066406 C122.04297,348.802082 122.125,348.464846 122.125,348.054688 C122.125,347.644529 122.044109,347.308432 121.882324,347.046387 C121.72054,346.784341 121.489259,346.584962 121.188477,346.448242 C120.887694,346.311523 120.404626,346.245443 119.739258,346.25 L119.739258,349.900391 Z M119.739258,350.433594 L119.739258,353.407227 L119.732422,353.749023 C119.732422,353.995118 119.795084,354.180826 119.92041,354.306152 C120.045736,354.431478 120.231444,354.494141 120.477539,354.494141 C120.842124,354.494141 121.178221,354.41325 121.48584,354.251465 C121.793459,354.08968 122.029296,353.854982 122.193359,353.547363 C122.357423,353.239745 122.439453,352.896812 122.439453,352.518555 C122.439453,352.08561 122.339194,351.697105 122.138672,351.353027 C121.93815,351.00895 121.662437,350.768555 121.311523,350.631836 C120.96061,350.495117 120.436527,350.429036 119.739258,350.433594 Z M131.685937,345.518555 L131.685937,345.833008 C131.211977,346.142905 130.863347,346.445962 130.640039,346.742188 C130.330142,347.152346 130.088608,347.678708 129.91543,348.321289 C129.696679,349.118819 129.587305,350.233066 129.587305,351.664062 C129.587305,353.013028 129.686425,354.061194 129.884668,354.808594 C130.082911,355.555993 130.352928,356.159828 130.694727,356.620117 C130.931707,356.939129 131.262107,357.2194 131.685937,357.460938 L131.685937,357.802734 C130.587625,357.433592 129.656807,356.680507 128.893457,355.543457 C128.130107,354.406407 127.748437,353.099617 127.748437,351.623047 C127.748437,350.164706 128.128968,348.873866 128.890039,347.750488 C129.651111,346.62711 130.583067,345.88314 131.685937,345.518555 Z M139.613086,349.56543 L142.169727,353.359375 C142.593557,353.988284 142.895474,354.369954 143.075488,354.504395 C143.255502,354.638835 143.468553,354.719726 143.714648,354.74707 L143.714648,355 L139.196094,355 L139.196094,354.74707 C139.556122,354.719726 139.788541,354.665039 139.893359,354.583008 C139.998178,354.500976 140.050586,354.400717 140.050586,354.282227 C140.050586,354.200195 140.034636,354.127279 140.002734,354.063477 C139.938932,353.926757 139.779428,353.671551 139.524219,353.297852 L138.170703,351.294922 L136.755664,353.024414 C136.331834,353.548505 136.119922,353.90397 136.119922,354.09082 C136.119922,354.222982 136.174609,354.346028 136.283984,354.459961 C136.39336,354.573894 136.555142,354.655924 136.769336,354.706055 C136.86504,354.733399 137.061001,354.74707 137.357227,354.74707 L137.357227,355 L133.795703,355 L133.795703,354.74707 C134.201304,354.687825 134.520311,354.578451 134.752734,354.418945 C135.058074,354.209309 135.484177,353.771813 136.031055,353.106445 L137.869922,350.864258 L135.511523,347.398438 C135.124152,346.828773 134.903125,346.512045 134.848437,346.448242 C134.72539,346.297851 134.604623,346.190756 134.486133,346.126953 C134.367643,346.063151 134.203582,346.0153 133.993945,345.983398 L133.993945,345.730469 L138.594531,345.730469 L138.594531,345.983398 L138.362109,345.983398 C138.097785,345.983398 137.913217,346.025553 137.808398,346.109863 C137.70358,346.194174 137.651172,346.30013 137.651172,346.427734 C137.651172,346.527995 137.667122,346.614583 137.699023,346.6875 L138.170703,347.398438 L139.319141,349.148438 L140.29668,347.952148 C140.797984,347.336911 141.048633,346.906251 141.048633,346.660156 C141.048633,346.537109 141.013314,346.423178 140.942676,346.318359 C140.872037,346.213541 140.770639,346.131511 140.638477,346.072266 C140.506314,346.013021 140.301238,345.983398 140.023242,345.983398 L140.023242,345.730469 L143.434375,345.730469 L143.434375,345.983398 C143.165493,345.987956 142.949024,346.020996 142.784961,346.08252 C142.620898,346.144043 142.445444,346.259114 142.258594,346.427734 C142.140104,346.53711 141.843883,346.876625 141.369922,347.446289 L139.613086,349.56543 Z M151.457227,355 L146.002148,355 L146.002148,354.849609 C147.674683,352.858063 148.689809,351.518233 149.047559,350.830078 C149.405308,350.141924 149.58418,349.46973 149.58418,348.813477 C149.58418,348.334959 149.436069,347.937339 149.139844,347.620605 C148.843618,347.303872 148.481317,347.145508 148.05293,347.145508 C147.351103,347.145508 146.806512,347.496416 146.419141,348.198242 L146.166211,348.109375 C146.412306,347.234371 146.786,346.587242 147.287305,346.167969 C147.788609,345.748696 148.36738,345.539062 149.023633,345.539062 C149.493036,345.539062 149.921417,345.648436 150.308789,345.867188 C150.696161,346.085939 150.999218,346.385578 151.217969,346.766113 C151.43672,347.146649 151.546094,347.503254 151.546094,347.835938 C151.546094,348.44206 151.377476,349.057289 151.040234,349.681641 C150.579946,350.524744 149.575073,351.700513 148.025586,353.208984 L150.028516,353.208984 C150.520706,353.208984 150.840852,353.188477 150.988965,353.147461 C151.137078,353.106445 151.258984,353.036947 151.354688,352.938965 C151.450391,352.840983 151.575715,352.634767 151.730664,352.320312 L151.976758,352.320312 L151.457227,355 Z M155.207617,357.454102 L155.207617,357.15332 C155.736266,356.925455 156.120214,356.630373 156.359473,356.268066 C156.598732,355.90576 156.718359,355.535484 156.718359,355.157227 C156.718359,355.079752 156.702409,355.020508 156.670508,354.979492 C156.638607,354.943034 156.606706,354.924805 156.574805,354.924805 C156.547461,354.924805 156.506446,354.940755 156.451758,354.972656 C156.319596,355.050131 156.155535,355.088867 155.95957,355.088867 C155.690689,355.088867 155.45713,354.984051 155.258887,354.774414 C155.060644,354.564778 154.961523,354.318686 154.961523,354.036133 C154.961523,353.73535 155.075455,353.47103 155.30332,353.243164 C155.531186,353.015298 155.806899,352.901367 156.130469,352.901367 C156.522398,352.901367 156.857355,353.052896 157.135352,353.355957 C157.413348,353.659018 157.552344,354.074867 157.552344,354.603516 C157.552344,355.255212 157.355243,355.833982 156.961035,356.339844 C156.566827,356.845706 155.982361,357.217121 155.207617,357.454102 Z M174.643945,345.730469 L174.643945,345.983398 C174.338605,346.024414 174.103907,346.113281 173.939844,346.25 C173.711978,346.441407 173.351956,346.963212 172.859766,347.81543 L170.85,351.171875 L170.85,353.414062 C170.85,353.892581 170.875065,354.189941 170.925195,354.306152 C170.975326,354.422364 171.074446,354.524902 171.222559,354.61377 C171.370671,354.702637 171.567772,354.74707 171.813867,354.74707 L172.333398,354.74707 L172.333398,355 L167.13125,355 L167.13125,354.74707 L167.616602,354.74707 C167.89004,354.74707 168.10651,354.699219 168.266016,354.603516 C168.384506,354.539713 168.477929,354.430339 168.546289,354.275391 C168.59642,354.166015 168.621484,353.878909 168.621484,353.414062 L168.621484,351.554688 L166.44082,347.583008 C166.007875,346.79915 165.70254,346.337729 165.524805,346.19873 C165.347069,346.059732 165.110093,345.987956 164.813867,345.983398 L164.813867,345.730469 L169.257227,345.730469 L169.257227,345.983398 L169.058984,345.983398 C168.790103,345.983398 168.602116,346.022135 168.49502,346.099609 C168.387923,346.177084 168.334375,346.259114 168.334375,346.345703 C168.334375,346.509766 168.516665,346.922197 168.88125,347.583008 L170.556055,350.652344 L172.224023,347.856445 C172.638739,347.172848 172.846094,346.719402 172.846094,346.496094 C172.846094,346.373046 172.78685,346.270508 172.668359,346.188477 C172.513411,346.074544 172.228583,346.006185 171.813867,345.983398 L171.813867,345.730469 L174.643945,345.730469 Z M182.448047,355 L176.992969,355 L176.992969,354.849609 C178.665503,352.858063 179.68063,351.518233 180.038379,350.830078 C180.396128,350.141924 180.575,349.46973 180.575,348.813477 C180.575,348.334959 180.42689,347.937339 180.130664,347.620605 C179.834439,347.303872 179.472138,347.145508 179.04375,347.145508 C178.341924,347.145508 177.797333,347.496416 177.409961,348.198242 L177.157031,348.109375 C177.403126,347.234371 177.77682,346.587242 178.278125,346.167969 C178.77943,345.748696 179.3582,345.539062 180.014453,345.539062 C180.483857,345.539062 180.912238,345.648436 181.299609,345.867188 C181.686981,346.085939 181.990038,346.385578 182.208789,346.766113 C182.42754,347.146649 182.536914,347.503254 182.536914,347.835938 C182.536914,348.44206 182.368296,349.057289 182.031055,349.681641 C181.570766,350.524744 180.565893,351.700513 179.016406,353.208984 L181.019336,353.208984 C181.511526,353.208984 181.831672,353.188477 181.979785,353.147461 C182.127898,353.106445 182.249804,353.036947 182.345508,352.938965 C182.441211,352.840983 182.566536,352.634767 182.721484,352.320312 L182.967578,352.320312 L182.448047,355 Z M185.67207,357.802734 L185.67207,357.488281 C186.146031,357.173827 186.49466,356.868491 186.717969,356.572266 C187.023309,356.162107 187.264843,355.638024 187.442578,355 C187.661329,354.197913 187.770703,353.081387 187.770703,351.650391 C187.770703,350.301426 187.671583,349.254398 187.47334,348.509277 C187.275097,347.764156 187.00508,347.161461 186.663281,346.701172 C186.426301,346.38216 186.095901,346.101889 185.67207,345.860352 L185.67207,345.518555 C186.770383,345.887697 187.701201,346.640782 188.464551,347.777832 C189.227901,348.914882 189.60957,350.221672 189.60957,351.698242 C189.60957,353.152025 189.227901,354.440587 188.464551,355.563965 C187.701201,356.687343 186.770383,357.433592 185.67207,357.802734 Z" id="B(X2,-Y2)" fill="#000000"></path>
                    <circle id="Oval" stroke="#FFFFFF" stroke-width="2" fill="#EB6767" cx="154" cy="329" r="5"></circle>
                    <path d="M451.824219,65.3613281 L448.549805,65.3613281 L448.160156,66.2636719 C448.032551,66.5644546 447.96875,66.8128245 447.96875,67.0087891 C447.96875,67.268556 448.073567,67.4599603 448.283203,67.5830078 C448.406251,67.6559248 448.709307,67.7106118 449.192383,67.7470703 L449.192383,68 L446.109375,68 L446.109375,67.7470703 C446.442059,67.6969399 446.715494,67.5590832 446.929688,67.3334961 C447.143881,67.107909 447.408202,66.6419306 447.722656,65.9355469 L451.038086,58.5390625 L451.167969,58.5390625 L454.510742,66.140625 C454.829754,66.8606807 455.091796,67.3141267 455.296875,67.5009766 C455.451824,67.6422533 455.670572,67.7242837 455.953125,67.7470703 L455.953125,68 L451.46875,68 L451.46875,67.7470703 L451.65332,67.7470703 C452.013348,67.7470703 452.266275,67.6969406 452.412109,67.5966797 C452.51237,67.5237627 452.5625,67.418946 452.5625,67.2822266 C452.5625,67.2001949 452.548828,67.1158858 452.521484,67.0292969 C452.51237,66.988281 452.444011,66.8173843 452.316406,66.5166016 L451.824219,65.3613281 Z M451.591797,64.8554688 L450.210938,61.6630859 L448.789062,64.8554688 L451.591797,64.8554688 Z M462.458398,58.5185547 L462.458398,58.8330078 C461.984438,59.1429052 461.635808,59.4459621 461.4125,59.7421875 C461.102603,60.1523458 460.861069,60.6787077 460.687891,61.3212891 C460.46914,62.1188191 460.359766,63.2330658 460.359766,64.6640625 C460.359766,66.0130276 460.458886,67.0611942 460.657129,67.8085938 C460.855372,68.5559933 461.125389,69.1598284 461.467188,69.6201172 C461.704168,69.9391292 462.034568,70.2193998 462.458398,70.4609375 L462.458398,70.8027344 C461.360086,70.4335919 460.429268,69.680507 459.665918,68.543457 C458.902568,67.4064071 458.520898,66.0996168 458.520898,64.6230469 C458.520898,63.1647063 458.901428,61.8738663 459.6625,60.7504883 C460.423572,59.6271103 461.355528,58.8831398 462.458398,58.5185547 Z M470.385547,62.5654297 L472.942187,66.359375 C473.366018,66.9882844 473.667935,67.3699538 473.847949,67.5043945 C474.027963,67.6388353 474.241014,67.7197264 474.487109,67.7470703 L474.487109,68 L469.968555,68 L469.968555,67.7470703 C470.328583,67.7197264 470.561002,67.6650395 470.66582,67.5830078 C470.770639,67.5009762 470.823047,67.4007167 470.823047,67.2822266 C470.823047,67.2001949 470.807097,67.127279 470.775195,67.0634766 C470.711393,66.9267571 470.551889,66.6715513 470.29668,66.2978516 L468.943164,64.2949219 L467.528125,66.0244141 C467.104295,66.5485052 466.892383,66.9039704 466.892383,67.0908203 C466.892383,67.2229824 466.94707,67.3460281 467.056445,67.4599609 C467.165821,67.5738938 467.327603,67.6559242 467.541797,67.7060547 C467.6375,67.7333986 467.833462,67.7470703 468.129687,67.7470703 L468.129687,68 L464.568164,68 L464.568164,67.7470703 C464.973765,67.6878252 465.292772,67.5784513 465.525195,67.4189453 C465.830535,67.2093088 466.256638,66.7718132 466.803516,66.1064453 L468.642383,63.8642578 L466.283984,60.3984375 C465.896613,59.8287732 465.675586,59.5120446 465.620898,59.4482422 C465.497851,59.2978508 465.377084,59.1907555 465.258594,59.1269531 C465.140104,59.0631507 464.976043,59.0152996 464.766406,58.9833984 L464.766406,58.7304688 L469.366992,58.7304688 L469.366992,58.9833984 L469.13457,58.9833984 C468.870246,58.9833984 468.685678,59.025553 468.580859,59.1098633 C468.476041,59.1941736 468.423633,59.3001296 468.423633,59.4277344 C468.423633,59.5279953 468.439583,59.614583 468.471484,59.6875 L468.943164,60.3984375 L470.091602,62.1484375 L471.069141,60.9521484 C471.570445,60.336911 471.821094,59.9062512 471.821094,59.6601562 C471.821094,59.5371088 471.785775,59.4231776 471.715137,59.3183594 C471.644498,59.2135411 471.5431,59.1315107 471.410937,59.0722656 C471.278775,59.0130205 471.073699,58.9833984 470.795703,58.9833984 L470.795703,58.7304688 L474.206836,58.7304688 L474.206836,58.9833984 C473.937954,58.9879558 473.721485,59.0209958 473.557422,59.0825195 C473.393359,59.1440433 473.217905,59.2591137 473.031055,59.4277344 C472.912565,59.5371099 472.616344,59.8766248 472.142383,60.4462891 L470.385547,62.5654297 Z M480.992383,58.5390625 L480.992383,66.1201172 C480.992383,66.6897815 481.017448,67.0532219 481.067578,67.2104492 C481.117709,67.3676766 481.222525,67.4964188 481.382031,67.5966797 C481.541537,67.6969406 481.796743,67.7470703 482.147656,67.7470703 L482.35957,67.7470703 L482.35957,68 L477.478711,68 L477.478711,67.7470703 L477.724805,67.7470703 C478.121291,67.7470703 478.40384,67.7014979 478.572461,67.6103516 C478.741082,67.5192053 478.855013,67.393881 478.914258,67.234375 C478.973503,67.074869 479.003125,66.7034534 479.003125,66.1201172 L479.003125,61.3144531 C479.003125,60.8860656 478.982617,60.6183274 478.941602,60.5112305 C478.900586,60.4041336 478.824252,60.3129887 478.712598,60.237793 C478.600943,60.1625973 478.472201,60.125 478.326367,60.125 C478.093944,60.125 477.811395,60.1979159 477.478711,60.34375 L477.355664,60.0976562 L480.766797,58.5390625 L480.992383,58.5390625 Z M485.980078,70.4541016 L485.980078,70.1533203 C486.508727,69.9254546 486.892675,69.6303729 487.131934,69.2680664 C487.371193,68.9057599 487.49082,68.5354837 487.49082,68.1572266 C487.49082,68.0797522 487.47487,68.020508 487.442969,67.9794922 C487.411068,67.9430337 487.379167,67.9248047 487.347266,67.9248047 C487.319922,67.9248047 487.278907,67.940755 487.224219,67.9726562 C487.092057,68.0501306 486.927996,68.0888672 486.732031,68.0888672 C486.46315,68.0888672 486.229591,67.9840505 486.031348,67.7744141 C485.833104,67.5647776 485.733984,67.3186863 485.733984,67.0361328 C485.733984,66.7353501 485.847916,66.4710298 486.075781,66.2431641 C486.303647,66.0152983 486.57936,65.9013672 486.90293,65.9013672 C487.294859,65.9013672 487.629816,66.0528956 487.907812,66.355957 C488.185809,66.6590184 488.324805,67.0748671 488.324805,67.6035156 C488.324805,68.2552116 488.127704,68.8339818 487.733496,69.3398438 C487.339288,69.8457057 486.754822,70.2171212 485.980078,70.4541016 Z M505.416406,58.7304688 L505.416406,58.9833984 C505.111066,59.0244143 504.876368,59.1132806 504.712305,59.25 C504.484439,59.4414072 504.124417,59.9632119 503.632227,60.8154297 L501.622461,64.171875 L501.622461,66.4140625 C501.622461,66.8925805 501.647526,67.1899408 501.697656,67.3061523 C501.747787,67.4223639 501.846907,67.5249019 501.99502,67.6137695 C502.143132,67.7026372 502.340233,67.7470703 502.586328,67.7470703 L503.105859,67.7470703 L503.105859,68 L497.903711,68 L497.903711,67.7470703 L498.389063,67.7470703 C498.662501,67.7470703 498.878971,67.6992192 499.038477,67.6035156 C499.156967,67.5397132 499.25039,67.4303393 499.31875,67.2753906 C499.36888,67.1660151 499.393945,66.8789086 499.393945,66.4140625 L499.393945,64.5546875 L497.213281,60.5830078 C496.780336,59.7991497 496.475001,59.3377286 496.297266,59.1987305 C496.11953,59.0597324 495.882554,58.9879558 495.586328,58.9833984 L495.586328,58.7304688 L500.029688,58.7304688 L500.029688,58.9833984 L499.831445,58.9833984 C499.562564,58.9833984 499.374577,59.022135 499.26748,59.0996094 C499.160384,59.1770837 499.106836,59.2591142 499.106836,59.3457031 C499.106836,59.5097664 499.289126,59.9221972 499.653711,60.5830078 L501.328516,63.6523438 L502.996484,60.8564453 C503.4112,60.1728481 503.618555,59.7194022 503.618555,59.4960938 C503.618555,59.3730463 503.55931,59.2705082 503.44082,59.1884766 C503.285872,59.0745437 503.001044,59.006185 502.586328,58.9833984 L502.586328,58.7304688 L505.416406,58.7304688 Z M511.983203,58.5390625 L511.983203,66.1201172 C511.983203,66.6897815 512.008268,67.0532219 512.058398,67.2104492 C512.108529,67.3676766 512.213346,67.4964188 512.372852,67.5966797 C512.532358,67.6969406 512.787563,67.7470703 513.138477,67.7470703 L513.350391,67.7470703 L513.350391,68 L508.469531,68 L508.469531,67.7470703 L508.715625,67.7470703 C509.112111,67.7470703 509.394661,67.7014979 509.563281,67.6103516 C509.731902,67.5192053 509.845833,67.393881 509.905078,67.234375 C509.964323,67.074869 509.993945,66.7034534 509.993945,66.1201172 L509.993945,61.3144531 C509.993945,60.8860656 509.973438,60.6183274 509.932422,60.5112305 C509.891406,60.4041336 509.815072,60.3129887 509.703418,60.237793 C509.591764,60.1625973 509.463022,60.125 509.317187,60.125 C509.084764,60.125 508.802215,60.1979159 508.469531,60.34375 L508.346484,60.0976562 L511.757617,58.5390625 L511.983203,58.5390625 Z M516.444531,70.8027344 L516.444531,70.4882812 C516.918492,70.1738266 517.267121,69.8684911 517.49043,69.5722656 C517.79577,69.1621073 518.037304,68.638024 518.215039,68 C518.43379,67.1979127 518.543164,66.0813874 518.543164,64.6503906 C518.543164,63.3014255 518.444044,62.2543983 518.245801,61.5092773 C518.047558,60.7641564 517.777541,60.1614606 517.435742,59.7011719 C517.198762,59.3821599 516.868361,59.1018892 516.444531,58.8603516 L516.444531,58.5185547 C517.542844,58.8876972 518.473662,59.6407821 519.237012,60.777832 C520.000362,61.914882 520.382031,63.2216723 520.382031,64.6982422 C520.382031,66.1520255 520.000362,67.4405868 519.237012,68.5639648 C518.473662,69.6873429 517.542844,70.4335919 516.444531,70.8027344 Z" id="A(X1,-Y1)" fill="#000000"></path>
                    <circle id="Oval" stroke="#FFFFFF" stroke-width="2" fill="#78AA30" cx="484" cy="81" r="5"></circle>
                </g>
                <g id="Stacked-Group" transform="translate(361.000000, 243.000000)"></g>
                <g id="Stacked-Group-Copy" transform="translate(31.000000, 243.000000)"></g>
                <g id="Stacked-Group-Copy-2" transform="translate(319.500000, 370.500000) rotate(90.000000) translate(-319.500000, -370.500000) translate(237.000000, 367.000000)"></g>
                <g id="Stacked-Group-Copy-3" transform="translate(319.500000, 122.500000) rotate(90.000000) translate(-319.500000, -122.500000) translate(237.000000, 119.000000)"></g>
                <g id="Group-7" transform="translate(359.000000, 253.000000)"></g>
                <g id="Group-9" transform="translate(332.000000, 34.000000)"></g>
                <g id="Group-10" transform="translate(332.000000, 282.000000)"></g>
                <g id="Group-8" transform="translate(24.000000, 253.000000)"></g>
            </g>
        </g>
    </g>
</svg>